<svg width="58" height="45" viewBox="0 0 58 45" fill="none" xmlns="http://www.w3.org/2000/svg">
<g clip-path="url(#clip0_1911_18)">
<path d="M51.5 0H51.5C47.9102 0 45 1.28241 45 2.86433V42.1357C45 43.7176 47.9102 45 51.5 45H51.5C55.0898 45 58 43.7176 58 42.1357V2.86433C58 1.28241 55.0898 0 51.5 0Z" fill="url(#paint0_linear_1911_18)" stroke="white" stroke-width="1.40179"/>
<path d="M38 45V14.4519C38 5.88461 32.2652 0 23.5356 0C18.3155 0 13.8651 2.16347 11.8111 5.2788H11.4686V1.29812H0V45H11.7255V18.7788C11.7255 13.3269 14.7213 9.86539 19.5133 9.86539C23.7924 9.86539 26.3602 12.7212 26.3602 17.9135V45H38Z" fill="url(#paint1_linear_1911_18)"/>
</g>
<defs>
<linearGradient id="paint0_linear_1911_18" x1="51.4999" y1="0.308007" x2="51.4999" y2="44.6921" gradientUnits="userSpaceOnUse">
<stop stop-color="#74E34C"/>
<stop offset="1" stop-color="#7EFF7B"/>
</linearGradient>
<linearGradient id="paint1_linear_1911_18" x1="20.8524" y1="-16.0096" x2="20.8524" y2="62.3077" gradientUnits="userSpaceOnUse">
<stop stop-color="#005723"/>
<stop offset="1" stop-color="#004126"/>
</linearGradient>
<clipPath id="clip0_1911_18">
<rect width="58" height="45" fill="white"/>
</clipPath>
</defs>
</svg>
