<svg width="708" height="406" viewBox="0 0 708 406" fill="none" xmlns="http://www.w3.org/2000/svg">
<g clip-path="url(#clip0_1_19)">
<path d="M118.88 184.19V281.42H83.92V184.19C85.25 156.22 35.3 145.23 34.97 188.52V281.43H0V133.58H34.96V138.24C69.92 124.92 118.87 140.9 118.87 184.19H118.88Z" fill="black"/>
<path d="M206.45 281.42C165.49 281.42 132.19 248.45 132.19 207.5C132.19 166.55 165.49 133.58 206.45 133.58C225.76 133.58 243.41 141.24 256.73 153.56V167.88C245.183 178.093 218.433 201.293 176.48 237.48C183.47 248.14 194.13 255.13 206.45 255.13C221.1 255.13 233.75 244.81 240.41 229.82L264.05 253.46C250.73 270.78 229.75 281.43 206.44 281.43L206.45 281.42ZM167.49 207.5V210.16L221.1 163.87C216.44 161.54 211.44 160.21 206.45 160.21C184.81 160.21 167.49 181.52 167.49 207.49V207.5Z" fill="black"/>
<path d="M277.72 176.53C278.05 154.89 299.36 133.57 341.65 133.57H388.6V160.21H341.65C322.67 160.21 313.01 168.2 312.01 176.53C309.68 204.5 387.6 184.86 388.6 237.13C388.93 259.11 367.62 281.42 324.66 281.42H277.71V255.11H324.66C344.97 255.11 354.63 245.79 353.96 237.13C352.29 210.49 276.37 229.14 277.7 176.53H277.72Z" fill="black"/>
<path d="M450.87 110.93V133.57H469.19V160.21H450.87V230.47C450.87 247.45 453.53 257.11 472.51 251.78V278.75C431.22 289.74 415.9 266.76 415.9 230.47V160.21H402.25V133.57H415.9V110.93H450.86H450.87Z" fill="black"/>
<path d="M559.76 133.57C573.75 133.57 587.06 137.57 598.72 144.56L622.03 128.91H633.68V335.7H598.72V270.43C587.4 277.42 573.75 281.42 559.76 281.42C518.8 281.42 485.84 248.45 485.84 207.5C485.84 166.55 518.8 133.58 559.76 133.58V133.57ZM559.76 160.21C538.12 160.21 520.8 181.52 520.8 207.49C520.8 233.46 538.12 255.11 559.76 255.11C581.4 255.11 598.39 233.8 598.39 207.49C598.39 181.18 581.07 160.21 559.76 160.21Z" fill="black"/>
<path d="M696.95 0H692.66C687.082 0 682.56 4.52192 682.56 10.1V395C682.56 400.578 687.082 405.1 692.66 405.1H696.95C702.528 405.1 707.05 400.578 707.05 395V10.1C707.05 4.52192 702.528 0 696.95 0Z" fill="black"/>
</g>
<defs>
<clipPath id="clip0_1_19">
<rect width="707.04" height="405.1" fill="white"/>
</clipPath>
</defs>
</svg>
