<svg width="480" height="240" viewBox="0 0 480 240" fill="none" xmlns="http://www.w3.org/2000/svg">
<g clip-path="url(#clip0_1096_5867)">
<path d="M163.749 103.055V105.014H159.093V134.266H163.749V136.225H151.898V134.266H156.554V104.874H151.898V102.915H163.749V103.055Z" fill="black" style="fill:black;fill-opacity:1;"/>
<path d="M186.32 134.126H189.706V136.086H179.69V134.126H183.64V120.27C183.64 118.031 183.217 116.351 182.37 115.232C181.524 114.112 180.113 113.552 178.138 113.552C177.15 113.552 176.304 113.832 175.458 114.252C174.611 114.672 174.047 115.232 173.483 116.071C172.918 116.911 172.495 117.751 172.213 118.871C171.931 119.99 171.79 121.11 171.79 122.37V134.266H175.458V136.226H165.441V134.266H169.109V114.112H165.441V112.153H171.649V115.932H171.79C173.059 112.992 175.458 111.593 178.843 111.593C181.524 111.593 183.358 112.293 184.345 113.832C185.474 115.232 186.038 117.471 186.038 120.27V134.126H186.32Z" fill="black" style="fill:black;fill-opacity:1;"/>
<path d="M212.419 103.055V134.266H215.663V136.225H209.879V132.166H209.738C208.751 133.846 207.763 134.965 206.635 135.805C205.506 136.505 203.954 136.925 201.979 136.925C199.017 136.925 196.76 135.805 195.067 133.706C193.374 131.466 192.527 128.387 192.527 124.468C192.527 122.509 192.809 120.83 193.233 119.29C193.656 117.75 194.361 116.491 195.208 115.371C196.054 114.251 197.042 113.412 198.17 112.852C199.299 112.292 200.71 112.012 202.12 112.012C203.954 112.012 205.506 112.432 206.776 113.132C208.045 113.832 209.174 115.091 210.02 116.631H210.161V105.294H205.929V103.335H212.419V103.055ZM202.685 134.825C203.954 134.825 204.942 134.546 205.929 133.986C206.917 133.426 207.622 132.726 208.328 131.746C208.892 130.767 209.456 129.647 209.738 128.247C210.02 126.848 210.161 125.448 210.161 123.769C210.161 120.41 209.456 117.89 208.045 116.211C206.635 114.391 204.801 113.552 202.685 113.552C201.556 113.552 200.427 113.832 199.44 114.251C198.452 114.811 197.606 115.511 197.042 116.351C196.336 117.331 195.913 118.45 195.49 119.71C195.067 120.969 194.926 122.509 194.926 124.049C194.926 125.588 195.067 126.988 195.49 128.387C195.913 129.647 196.336 130.767 197.042 131.746C197.747 132.726 198.593 133.426 199.44 133.986C200.286 134.546 201.556 134.825 202.685 134.825Z" fill="black" style="fill:black;fill-opacity:1;"/>
<path d="M220.883 124.609C220.883 127.688 221.588 130.207 222.999 132.027C224.269 133.846 226.244 134.686 228.642 134.686C230.476 134.686 232.028 134.266 233.298 133.426C234.567 132.587 235.414 131.047 235.696 128.948H237.953C237.53 131.607 236.542 133.566 234.849 134.826C233.156 136.086 231.181 136.785 228.642 136.785C225.397 136.785 222.858 135.666 221.024 133.426C219.19 131.187 218.344 128.108 218.344 124.189C218.344 120.27 219.19 117.191 221.024 114.952C222.858 112.712 225.397 111.593 228.642 111.593C231.746 111.593 234.144 112.712 235.837 114.952C237.53 117.191 238.376 120.41 238.376 124.609H220.883ZM235.837 122.65C235.837 119.71 235.131 117.471 233.862 115.932C232.592 114.392 230.758 113.552 228.36 113.552C226.385 113.552 224.692 114.252 223.422 115.792C222.012 117.331 221.306 119.57 220.883 122.65H235.837Z" fill="black" style="fill:black;fill-opacity:1;"/>
<path d="M249.521 112.292V114.251H246.135L251.919 122.229L257.844 114.251H254.882V112.292H263.064V114.251H260.666L253.471 123.909L261.23 134.266H263.346V136.225H255.164V134.266H258.408L251.919 125.588L245.43 134.266H248.674V136.225H240.492V134.266H242.608L250.367 123.909L243.314 114.251H241.198V112.292H249.521Z" fill="black" style="fill:black;fill-opacity:1;"/>
<path d="M282.815 103.055V105.014H277.878L287.753 133.426H287.894L297.769 105.014H292.832V103.055H303.553V105.014H300.449L289.305 136.225H286.201L275.056 104.874H272.094V102.915H282.815V103.055Z" fill="black" style="fill:black;fill-opacity:1;"/>
<path d="M304.961 124.609C304.961 127.688 305.667 130.207 307.077 132.027C308.347 133.846 310.322 134.686 312.72 134.686C314.554 134.686 316.106 134.266 317.376 133.426C318.645 132.587 319.492 131.047 319.774 128.948H322.031C321.608 131.607 320.62 133.566 318.927 134.826C317.235 136.086 315.26 136.785 312.72 136.785C309.476 136.785 306.936 135.666 305.102 133.426C303.268 131.187 302.422 128.108 302.422 124.189C302.422 120.27 303.268 117.191 305.102 114.952C306.936 112.712 309.476 111.593 312.72 111.593C315.824 111.593 318.222 112.712 319.915 114.952C321.608 117.191 322.454 120.41 322.454 124.609H304.961ZM320.056 122.65C320.056 119.71 319.351 117.471 318.081 115.932C316.811 114.392 314.977 113.552 312.579 113.552C310.604 113.552 308.911 114.252 307.642 115.792C306.231 117.331 305.525 119.57 305.102 122.65H320.056Z" fill="black" style="fill:black;fill-opacity:1;"/>
<path d="M345.594 134.126H348.979V136.086H338.963V134.126H342.913V120.27C342.913 118.031 342.49 116.351 341.644 115.232C340.797 114.112 339.386 113.552 337.411 113.552C336.424 113.552 335.577 113.832 334.731 114.252C333.885 114.672 333.32 115.232 332.756 116.071C332.192 116.911 331.769 117.751 331.486 118.871C331.204 119.99 331.063 121.11 331.063 122.37V134.266H334.731V136.226H324.715V134.266H328.383V114.112H324.715V112.153H330.922V115.932H331.063C332.333 112.992 334.731 111.593 338.117 111.593C340.797 111.593 342.631 112.293 343.619 113.832C344.747 115.232 345.312 117.471 345.312 120.27V134.126H345.594Z" fill="black" style="fill:black;fill-opacity:1;"/>
<path d="M357.162 112.292H363.651V114.251H357.162V131.187C357.162 132.446 357.444 133.426 357.867 133.986C358.29 134.546 358.855 134.825 359.56 134.825C360.406 134.825 361.112 134.546 361.676 133.846C362.24 133.146 362.522 132.166 362.522 130.767V129.787H364.497V130.347C364.497 132.446 364.074 133.986 363.087 135.105C362.099 136.225 360.971 136.785 359.419 136.785C357.726 136.785 356.597 136.365 355.892 135.385C355.187 134.406 354.763 133.146 354.763 131.606V114.111H350.531V112.152H354.763V107.114L357.303 106.134V112.292H357.162Z" fill="black" style="fill:black;fill-opacity:1;"/>
<path d="M372.394 112.292V128.108C372.394 130.347 372.817 132.027 373.664 133.146C374.51 134.266 375.921 134.826 377.896 134.826C378.884 134.826 379.73 134.686 380.435 134.266C381.141 133.846 381.846 133.286 382.41 132.586C382.975 131.887 383.398 130.907 383.68 129.927C383.962 128.947 384.103 127.688 384.103 126.428V114.252H380.435V112.292H386.643V134.266H390.311V136.225H384.103V132.307H383.962C383.398 133.846 382.41 134.966 381.141 135.666C379.871 136.505 378.46 136.785 376.909 136.785C374.228 136.785 372.394 136.085 371.407 134.546C370.278 133.146 369.714 130.907 369.714 128.108V114.112H366.328V112.152H372.394V112.292Z" fill="black" style="fill:black;fill-opacity:1;"/>
<path d="M406.252 113.971C406.252 113.971 405.97 113.831 405.688 113.831C405.406 113.831 405.124 113.831 404.983 113.831C403.854 113.831 402.867 114.111 402.02 114.531C401.174 114.951 400.468 115.651 399.904 116.351C399.34 117.19 398.917 118.03 398.775 119.01C398.493 119.99 398.352 121.109 398.352 122.229V134.126H402.867V136.085H392.004V134.126H395.672V114.111H392.004V112.152H398.211V116.351H398.352C398.916 114.811 399.622 113.552 400.75 112.712C401.879 111.872 403.149 111.452 404.559 111.452C405.124 111.452 405.547 111.452 405.829 111.592V113.971H406.252Z" fill="black" style="fill:black;fill-opacity:1;"/>
<path d="M411.192 124.609C411.192 127.688 411.897 130.207 413.308 132.027C414.577 133.846 416.552 134.686 418.951 134.686C420.785 134.686 422.336 134.266 423.606 133.426C424.876 132.587 425.722 131.047 426.004 128.948H428.262C427.838 131.607 426.851 133.566 425.158 134.826C423.465 136.086 421.49 136.785 418.951 136.785C415.706 136.785 413.167 135.666 411.333 133.426C409.499 131.187 408.652 128.108 408.652 124.189C408.652 120.27 409.499 117.191 411.333 114.952C413.167 112.712 415.706 111.593 418.951 111.593C422.054 111.593 424.453 112.712 426.145 114.952C427.838 117.191 428.685 120.41 428.685 124.609H411.192ZM426.145 122.65C426.145 119.71 425.44 117.471 424.17 115.932C422.901 114.392 421.067 113.552 418.669 113.552C416.693 113.552 415.001 114.252 413.731 115.792C412.32 117.331 411.615 119.57 411.192 122.65H426.145Z" fill="black" style="fill:black;fill-opacity:1;"/>
<path d="M446.6 115.092V112.293H448.575V120.41H446.6V119.291C446.6 118.031 446.459 117.051 446.036 116.351C445.612 115.652 445.048 114.952 444.484 114.532C443.92 114.112 443.214 113.832 442.509 113.692C441.803 113.552 441.098 113.412 440.534 113.412C438.7 113.412 437.43 113.832 436.443 114.812C435.455 115.792 435.032 117.051 435.032 118.591C435.032 119.291 435.173 119.85 435.455 120.41C435.737 120.97 436.161 121.25 436.584 121.53C437.148 121.81 437.853 122.09 438.559 122.23C439.264 122.37 440.111 122.51 440.957 122.65C441.803 122.79 442.509 122.929 443.355 123.069C444.202 123.209 444.766 123.349 445.471 123.629C446.6 124.189 447.587 124.889 448.152 125.729C448.716 126.568 449.139 127.688 449.139 129.228C449.139 131.747 448.434 133.566 446.882 134.826C445.33 136.086 443.355 136.646 440.816 136.646C439.405 136.646 437.995 136.366 436.866 135.806C435.737 135.246 434.891 134.266 434.327 132.867V136.086H432.352V127.688H434.327C434.468 130.067 435.032 131.887 436.302 133.007C437.43 134.126 438.982 134.686 440.816 134.686C442.65 134.686 444.061 134.266 445.189 133.286C446.177 132.447 446.741 131.047 446.741 129.508C446.741 128.248 446.459 127.408 446.036 126.848C445.612 126.289 444.907 125.869 444.061 125.589C443.496 125.449 442.791 125.309 442.086 125.169C441.38 125.029 440.675 124.889 439.828 124.889C439.123 124.749 438.277 124.609 437.571 124.469C436.866 124.329 436.161 124.049 435.455 123.769C434.609 123.349 434.044 122.79 433.48 122.09C432.916 121.39 432.634 120.41 432.634 119.151C432.634 118.031 432.775 117.051 433.198 116.071C433.621 115.092 434.185 114.392 434.891 113.692C435.596 112.992 436.443 112.572 437.289 112.153C438.277 111.733 439.264 111.593 440.252 111.593C441.803 111.593 443.073 111.873 444.061 112.433C445.048 112.992 445.895 113.832 446.6 115.092Z" fill="black" style="fill:black;fill-opacity:1;"/>
<mask id="mask0_1096_5867" style="mask-type:luminance" maskUnits="userSpaceOnUse" x="31" y="85" width="85" height="69">
<path d="M115.926 85H31V154H115.926V85Z" fill="white" style="fill:white;fill-opacity:1;"/>
</mask>
<g mask="url(#mask0_1096_5867)">
<path d="M69.6541 85H31V92.6978H69.6541V85Z" fill="black" style="fill:black;fill-opacity:1;"/>
<path d="M108.309 100.256H54.1367V107.954H108.168V100.256H108.309Z" fill="black" style="fill:black;fill-opacity:1;"/>
<path d="M115.927 115.651H54.1367V123.349H115.927V115.651Z" fill="black" style="fill:black;fill-opacity:1;"/>
<path d="M108.309 130.906H54.1367V138.604H108.168V130.906H108.309Z" fill="black" style="fill:black;fill-opacity:1;"/>
<path d="M92.7908 146.302H54.1367V154H92.7908V146.302Z" fill="black" style="fill:black;fill-opacity:1;"/>
</g>
</g>
<defs>
<clipPath id="clip0_1096_5867">
<rect width="418" height="69" fill="white" style="fill:white;fill-opacity:1;" transform="translate(31 85)"/>
</clipPath>
</defs>
</svg>
