<svg width="480" height="240" viewBox="0 0 480 240" fill="none" xmlns="http://www.w3.org/2000/svg">
<g clip-path="url(#clip0_1094_5661)">
<path d="M178.246 106.466C178.246 104.63 176.8 103.124 174.775 103.124C172.751 103.124 171.305 104.63 171.305 106.466V133.58C171.305 135.416 172.751 136.923 174.775 136.923C176.848 136.923 178.246 135.416 178.246 133.58V106.466Z" fill="black" style="fill:black;fill-opacity:1;"/>
<path d="M212.423 103.124C210.399 103.124 209 104.63 209 106.466V118.046L209.193 128.402L205 118.705L199.504 107.69C197.817 104.254 195.889 103.124 193.141 103.124C189.092 103.124 187.309 105.619 187.309 109.196V133.58C187.309 135.416 188.706 136.923 190.731 136.923C192.756 136.923 194.154 135.416 194.154 133.58L194.105 122.142L193.961 110.42L198.444 121.153L203.987 132.356C205.723 135.934 207.555 136.97 210.35 136.97C213.966 136.97 215.845 134.804 215.845 130.803V106.466C215.845 104.63 214.448 103.124 212.423 103.124Z" fill="black" style="fill:black;fill-opacity:1;"/>
<path d="M241.439 110.044L249.296 110.232C251.128 110.279 252.574 108.914 252.574 106.937C252.574 104.96 251.128 103.595 249.296 103.595L226.543 103.548C224.76 103.548 223.266 104.913 223.266 106.89C223.266 108.867 224.76 110.232 226.543 110.185L234.449 110.044V133.58C234.449 135.416 235.895 136.923 237.92 136.923C239.992 136.923 241.439 135.416 241.439 133.58V110.044Z" fill="black" style="fill:black;fill-opacity:1;"/>
<path d="M264.733 136.499H281.653C283.436 136.499 284.883 135.181 284.883 133.345C284.883 131.462 283.436 130.144 281.653 130.144L266.951 130.191V122.33H279.676C281.412 122.33 282.81 121.059 282.81 119.318C282.81 117.529 281.412 116.258 279.676 116.258L266.951 116.352V109.856H281.653C283.436 109.856 284.883 108.538 284.883 106.655C284.883 104.772 283.436 103.501 281.653 103.501L264.781 103.548C261.696 103.548 259.961 105.243 259.961 108.255V131.792C259.961 134.804 261.696 136.499 264.733 136.499Z" fill="black" style="fill:black;fill-opacity:1;"/>
<path d="M312.44 123.083C317.019 121.906 319.719 118.423 319.719 113.81C319.719 108.679 316.296 103.548 308.101 103.548H297.496C294.411 103.548 292.676 105.242 292.676 108.255V133.58C292.676 135.416 294.122 136.923 296.243 136.923C298.316 136.923 299.81 135.416 299.81 133.58L299.762 124.73H305.595L311.524 135.181C312.488 136.781 314.512 137.44 316.393 136.499C318.272 135.51 318.803 133.533 317.79 131.933L312.44 123.083ZM299.762 109.809H308.149C310.993 109.809 312.777 111.55 312.777 114.139C312.777 116.681 311.09 118.564 308.246 118.564H299.762V109.809Z" fill="black" style="fill:black;fill-opacity:1;"/>
<path d="M341.009 137.111C348.047 137.111 352.578 134.004 354.12 128.967C354.94 126.096 353.205 124.025 350.601 124.025C349.01 124.025 347.95 124.825 347.323 126.567C346.36 129.203 343.997 130.85 340.623 130.85C335.272 130.85 332.959 127.32 332.959 119.976C332.959 112.774 335.32 109.338 340.623 109.338C343.949 109.338 345.877 110.703 347.082 113.857C347.757 115.646 348.866 116.446 350.505 116.446C353.011 116.446 354.843 114.469 354.072 111.739C352.53 106.184 348.047 103.077 340.816 103.077C330.886 103.077 325.824 109.008 325.824 119.976C325.824 131.038 330.886 137.111 341.009 137.111Z" fill="black" style="fill:black;fill-opacity:1;"/>
<path d="M375.283 137.017C385.503 137.017 390.564 130.897 390.564 119.976C390.564 108.961 385.358 102.889 375.283 102.889C365.161 102.889 360.099 109.055 360.051 119.976C360.051 130.944 365.209 137.017 375.283 137.017ZM375.283 130.709C369.595 130.709 367.137 127.178 367.137 119.976C367.137 112.68 369.644 109.149 375.235 109.149C380.875 109.149 383.526 112.68 383.478 119.976C383.478 127.225 380.972 130.709 375.283 130.709Z" fill="black" style="fill:black;fill-opacity:1;"/>
<path d="M435.435 109.008C435.435 105.29 433.073 103.077 429.41 103.077C426.421 103.077 424.156 104.678 423.047 108.349L419.335 120.165L416.877 128.685L414.515 120.165L410.562 108.349C409.453 104.913 407.525 103.077 404.15 103.077C400.439 103.077 398.125 105.242 398.125 109.008V133.58C398.125 135.416 399.475 136.923 401.451 136.923C403.428 136.923 404.777 135.416 404.777 133.58L404.729 121.718L404.392 109.008L408.2 122.001L412.249 133.486C413.117 136.028 414.756 136.876 416.877 136.876C418.853 136.876 420.444 136.169 421.263 133.58L425.119 122.001L429.217 108.914L428.831 121.718V133.58C428.831 135.416 430.229 136.923 432.158 136.923C434.134 136.923 435.484 135.416 435.484 133.58L435.435 109.008Z" fill="black" style="fill:black;fill-opacity:1;"/>
<path d="M121.027 124.424C121.027 125.209 120.711 125.961 120.149 126.516C119.587 127.07 118.825 127.382 118.029 127.382C117.234 127.382 116.472 127.07 115.91 126.516C115.348 125.961 115.032 125.209 115.032 124.424V98.0001C115.032 97.2157 115.348 96.4634 115.91 95.9087C116.472 95.354 117.234 95.0424 118.029 95.0424C118.825 95.0424 119.587 95.354 120.149 95.9087C120.711 96.4634 121.027 97.2157 121.027 98.0001V124.424ZM119.986 142.733C119.59 143.124 108.443 152.291 88.0078 152.291C67.5722 152.291 56.4998 143.173 56.0292 142.782C55.7326 142.535 55.4883 142.233 55.3103 141.893C55.1323 141.553 55.0241 141.181 54.9919 140.8C54.9597 140.418 55.004 140.034 55.1226 139.67C55.2411 139.305 55.4313 138.967 55.6824 138.675C56.1998 138.085 56.9327 137.72 57.7216 137.66C58.5104 137.601 59.2911 137.852 59.8934 138.358C60.0668 138.48 70.0245 146.449 87.9829 146.449C105.941 146.449 115.973 138.431 116.073 138.358C116.682 137.856 117.465 137.608 118.256 137.668C119.047 137.727 119.783 138.089 120.308 138.675C120.814 139.257 121.066 140.013 121.01 140.777C120.955 141.541 120.596 142.253 120.011 142.758L119.986 142.733ZM54.9641 98.0001C55.0089 97.2132 55.3676 96.4757 55.9617 95.949C56.5558 95.4223 57.337 95.149 58.1347 95.189C58.8742 95.2305 59.5719 95.5406 60.0933 96.0597C60.6148 96.5788 60.923 97.2701 60.9585 98.0001V124.376C60.9585 125.16 60.6427 125.912 60.0807 126.467C59.5186 127.022 58.7562 127.333 57.9613 127.333C57.1664 127.333 56.4041 127.022 55.842 126.467C55.2799 125.912 54.9641 125.16 54.9641 124.376V98.0001ZM69.9997 92.1335C70.0445 91.3465 70.4032 90.6091 70.9973 90.0824C71.5914 89.5556 72.3727 89.2824 73.1703 89.3224C73.9098 89.3638 74.6075 89.674 75.129 90.1931C75.6504 90.7122 75.9586 91.4034 75.9941 92.1335V131.244C75.9941 132.029 75.6784 132.781 75.1163 133.336C74.5542 133.89 73.7918 134.202 72.9969 134.202C72.202 134.202 71.4397 133.89 70.8776 133.336C70.3155 132.781 69.9997 132.029 69.9997 131.244V92.1335ZM85.1097 90.6668C85.1097 89.8824 85.4255 89.1301 85.9876 88.5754C86.5497 88.0207 87.312 87.7091 88.1067 87.7091C88.9018 87.7091 89.6641 88.0207 90.2262 88.5754C90.7883 89.1301 91.1041 89.8824 91.1041 90.6668V133.2C91.1041 133.984 90.7883 134.737 90.2262 135.292C89.6641 135.846 88.9018 136.158 88.1067 136.158C87.312 136.158 86.5497 135.846 85.9876 135.292C85.4255 134.737 85.1097 133.984 85.1097 133.2V90.6668ZM99.972 92.1335C99.972 91.3491 100.288 90.5967 100.85 90.042C101.412 89.4874 102.174 89.1757 102.969 89.1757C103.764 89.1757 104.526 89.4874 105.088 90.042C105.651 90.5967 105.966 91.3491 105.966 92.1335V131.244C105.966 132.029 105.651 132.781 105.088 133.336C104.526 133.89 103.764 134.202 102.969 134.202C102.174 134.202 101.412 133.89 100.85 133.336C100.288 132.781 99.972 132.029 99.972 131.244V92.1335ZM121.844 76.0002H54.2705C52.7981 75.9906 51.3383 76.2676 49.9745 76.8155C48.6108 77.3634 47.3699 78.1713 46.323 79.1931C45.2762 80.2149 44.4438 81.4303 43.8735 82.77C43.3033 84.1097 43.0065 85.5472 43 87.0002V153C43.0065 154.453 43.3033 155.89 43.8735 157.23C44.4438 158.569 45.2762 159.785 46.323 160.807C47.3699 161.829 48.6108 162.637 49.9745 163.184C51.3383 163.733 52.7981 164.009 54.2705 164H121.844C123.314 164.009 124.772 163.733 126.134 163.187C127.497 162.641 128.736 161.835 129.783 160.815C130.829 159.796 131.662 158.584 132.234 157.247C132.806 155.91 133.105 154.475 133.114 153.024V87.0002C133.108 85.5492 132.812 84.1138 132.243 82.7757C131.675 81.4376 130.845 80.2232 129.8 79.2018C128.756 78.1803 127.518 77.3719 126.157 76.8225C124.796 76.2732 123.339 75.9938 121.869 76.0002" fill="black" style="fill:black;fill-opacity:1;"/>
</g>
<defs>
<clipPath id="clip0_1094_5661">
<rect width="393" height="88" fill="white" style="fill:white;fill-opacity:1;" transform="translate(43 76)"/>
</clipPath>
</defs>
</svg>
