<svg width="480" height="240" viewBox="0 0 480 240" fill="none" xmlns="http://www.w3.org/2000/svg">
<g clip-path="url(#clip0_1728_5541)">
<path fill-rule="evenodd" clip-rule="evenodd" d="M86.9041 92.4796C86.4717 92.9548 86.5004 93.6838 86.9546 94.138L143.09 150.273C143.544 150.727 144.273 150.756 144.748 150.324C152.979 142.834 158.146 132.035 158.146 120.03C158.146 97.4149 139.813 79.082 117.198 79.082C105.193 79.082 94.3939 84.2486 86.9041 92.4796ZM79.8881 103.133C79.6806 103.591 79.7852 104.127 80.1403 104.482L132.746 157.087C133.101 157.442 133.637 157.547 134.095 157.34C135.31 156.788 136.493 156.18 137.642 155.517C138.324 155.123 138.429 154.191 137.871 153.634L83.5937 99.3562C83.0364 98.7989 82.1051 98.9035 81.7111 99.586C81.0481 100.734 80.4393 101.918 79.8881 103.133ZM76.6966 118.196C76.4503 117.95 76.3193 117.611 76.3425 117.263C76.4511 115.635 76.6548 114.034 76.9481 112.463C77.124 111.522 78.2745 111.195 78.9517 111.872L125.355 158.276C126.033 158.953 125.706 160.104 124.764 160.279C123.194 160.573 121.592 160.777 119.965 160.885C119.617 160.908 119.278 160.777 119.031 160.531L76.6966 118.196ZM79.5443 129.623C78.6989 128.778 77.3345 129.506 77.6441 130.661C81.4165 144.731 92.4966 155.811 106.567 159.583C107.722 159.893 108.45 158.529 107.605 157.683L79.5443 129.623ZM241.308 101.616C244.244 101.616 246.623 99.2276 246.623 96.2819C246.623 93.3362 244.244 90.9482 241.308 90.9482C238.374 90.9482 235.995 93.3362 235.995 96.2819C235.995 99.2276 238.374 101.616 241.308 101.616ZM195.79 148.131V90.9514H205.234V139.765H230.697V148.131H195.79ZM263.007 124.799V148.131H253.869V107.606H262.893V114.552L263.007 114.476C263.925 112.301 265.403 110.485 267.443 109.026C269.481 107.542 272.081 106.8 275.242 106.8C278.046 106.8 280.595 107.427 282.889 108.681C285.183 109.909 287.018 111.712 288.394 114.092C289.771 116.471 290.459 119.388 290.459 122.841V148.131H281.321V124.108C281.321 121.038 280.505 118.71 278.874 117.123C277.269 115.512 275.115 114.706 272.413 114.706C270.679 114.706 269.099 115.064 267.672 115.78C266.245 116.497 265.11 117.597 264.269 119.081C263.428 120.564 263.007 122.47 263.007 124.799ZM345.747 147.44C347.837 148.335 350.234 148.783 352.935 148.783C355.153 148.783 357.051 148.502 358.632 147.939C360.213 147.35 361.512 146.57 362.532 145.598C363.577 144.626 364.405 143.564 365.017 142.413H365.17V148.131H373.926V120.232C373.926 118.262 373.543 116.458 372.779 114.821C372.014 113.184 370.905 111.764 369.452 110.561C368.025 109.359 366.291 108.438 364.252 107.798C362.214 107.133 359.919 106.8 357.371 106.8C353.879 106.8 350.858 107.402 348.309 108.604C345.785 109.781 343.81 111.367 342.382 113.363C340.955 115.358 340.178 117.61 340.05 120.117H348.883C348.984 118.94 349.392 117.891 350.106 116.97C350.82 116.049 351.788 115.333 353.012 114.821C354.235 114.284 355.65 114.015 357.256 114.015C358.862 114.015 360.225 114.284 361.347 114.821C362.493 115.358 363.373 116.087 363.984 117.008C364.597 117.929 364.903 119.004 364.903 120.232V120.539C364.903 121.46 364.584 122.138 363.947 122.573C363.335 123.008 362.29 123.327 360.812 123.532C359.358 123.737 357.371 123.98 354.847 124.261C352.782 124.491 350.794 124.837 348.883 125.297C346.971 125.758 345.263 126.436 343.759 127.331C342.281 128.227 341.108 129.416 340.241 130.9C339.375 132.384 338.942 134.29 338.942 136.618C338.942 139.304 339.553 141.556 340.777 143.372C342 145.163 343.657 146.519 345.747 147.44ZM360.544 140.648C359.065 141.441 357.243 141.837 355.077 141.837C352.884 141.837 351.138 141.377 349.838 140.456C348.538 139.509 347.888 138.217 347.888 136.58C347.888 135.301 348.245 134.264 348.959 133.471C349.698 132.678 350.667 132.051 351.865 131.591C353.063 131.13 354.362 130.811 355.764 130.632C356.784 130.478 357.778 130.325 358.747 130.171C359.715 129.992 360.62 129.826 361.462 129.672C362.303 129.493 363.016 129.314 363.602 129.135C364.214 128.956 364.66 128.764 364.94 128.559V133.088C364.94 134.674 364.571 136.132 363.831 137.462C363.118 138.767 362.022 139.829 360.544 140.648ZM381.898 148.131V107.606H390.692V114.284H390.807C391.546 111.981 392.706 110.229 394.286 109.026C395.892 107.798 397.995 107.184 400.595 107.184C401.232 107.184 401.806 107.21 402.315 107.261C402.851 107.287 403.297 107.312 403.654 107.338V115.588C403.322 115.537 402.735 115.473 401.895 115.397C401.054 115.32 400.162 115.281 399.218 115.281C397.714 115.281 396.338 115.627 395.089 116.318C393.84 117.008 392.846 118.07 392.107 119.503C391.393 120.91 391.036 122.688 391.036 124.837V148.131H381.898ZM236.721 148.131V107.606H245.858V148.131H236.721ZM305.658 146.327C308.589 148.144 312.069 149.052 316.096 149.052C319.206 149.052 322.035 148.489 324.584 147.363C327.158 146.212 329.299 144.639 331.007 142.643C332.715 140.622 333.824 138.294 334.334 135.659H325.731C325.348 136.861 324.724 137.923 323.857 138.844C323.017 139.739 321.958 140.443 320.684 140.955C319.409 141.466 317.931 141.722 316.249 141.722C313.98 141.722 312.03 141.21 310.399 140.187C308.794 139.164 307.57 137.744 306.729 135.927C305.965 134.255 305.548 132.362 305.478 130.248H334.869V127.792C334.869 124.671 334.41 121.831 333.492 119.272C332.575 116.689 331.275 114.463 329.592 112.595C327.91 110.702 325.884 109.244 323.513 108.22C321.168 107.197 318.556 106.685 315.675 106.685C311.929 106.685 308.615 107.594 305.735 109.41C302.854 111.226 300.598 113.734 298.967 116.932C297.336 120.13 296.52 123.788 296.52 127.907C296.52 132 297.31 135.646 298.891 138.844C300.471 142.016 302.727 144.511 305.658 146.327ZM324.89 119.503C324.049 117.763 322.85 116.42 321.296 115.473C319.741 114.527 317.906 114.053 315.79 114.053C313.7 114.053 311.877 114.527 310.322 115.473C308.794 116.42 307.595 117.763 306.729 119.503C306.11 120.763 305.719 122.195 305.555 123.801H326.063C325.899 122.195 325.508 120.763 324.89 119.503Z" fill="black" style="fill:black;fill-opacity:1;"/>
</g>
<defs>
<clipPath id="clip0_1728_5541">
<rect width="327.344" height="81.8359" fill="white" style="fill:white;fill-opacity:1;" transform="translate(76.3281 79.082)"/>
</clipPath>
</defs>
</svg>
