<svg width="480" height="240" viewBox="0 0 480 240" fill="none" xmlns="http://www.w3.org/2000/svg">
<g clip-path="url(#clip0_1728_5728)">
<path d="M47.5016 96.35C47.5016 91.45 42.8016 90.25 39.1016 90.25V90.95C41.3016 90.95 43.0016 91.65 43.0016 93.45C43.0016 94.45 42.3016 95.95 40.0016 95.95C38.3016 95.95 34.6016 94.95 31.9016 93.95C28.7016 92.75 25.8016 91.75 23.3016 91.75C18.4016 91.75 14.9016 95.45 14.9016 99.65C14.9016 103.35 17.6016 104.55 18.6016 105.05L18.8016 104.55C18.3016 104.05 17.6016 103.55 17.6016 102.05C17.6016 101.05 18.6016 99.35 21.0016 99.35C23.2016 99.35 26.2016 100.35 30.1016 101.55C33.5016 102.55 37.2016 103.25 39.2016 103.55V111.15L35.5016 114.35V114.55L39.2016 117.75V128.35C37.2016 129.55 35.0016 129.85 33.1016 129.85C29.4016 129.85 26.2016 128.85 23.5016 125.95L33.6016 121.05V104.05L21.5016 109.45C22.5016 106.25 25.2016 104.05 27.9016 102.55L27.6016 101.85C20.2016 103.85 13.6016 110.75 13.6016 119.05C13.6016 128.85 21.7016 136.25 30.8016 136.25C40.6016 136.25 47.0016 128.35 47.0016 120.25H46.6016C45.1016 123.45 42.9016 126.35 40.2016 127.85V117.75L44.1016 114.55V114.35L40.2016 111.15V103.55C43.9016 103.55 47.5016 101.05 47.5016 96.35ZM26.1016 123.45L23.1016 124.95C21.4016 122.75 20.4016 119.75 20.4016 115.65C20.4016 113.95 20.4016 111.95 20.9016 110.45L26.1016 108.25V123.45ZM52.2016 129.15L49.0016 131.65L49.5016 132.15L51.0016 130.95L56.4016 135.85L63.8016 130.95L63.6016 130.45L61.6016 131.65L59.1016 129.15V112.35L61.1016 110.85L65.3016 114.25V129.25C65.3016 138.55 63.3016 140.05 59.2016 141.55V142.25C66.1016 142.45 72.5016 140.25 72.5016 128.25V112.15L74.7016 110.45L74.2016 109.95L72.2016 111.45L66.0016 106.25L59.1016 111.45V91.25H58.6016L50.0016 97.15V97.65C51.0016 98.15 52.5016 98.65 52.5016 101.35L52.2016 129.15ZM97.2016 126.45L91.1016 131.15L85.0016 126.25V123.25L96.6016 115.35V115.15L90.6016 106.25L77.8016 113.15V129.35L75.3016 131.35L75.8016 131.85L78.0016 130.15L86.4016 136.25L97.5016 127.35L97.2016 126.45ZM84.9016 122.25V110.15L85.4016 109.95L90.8016 118.55L84.9016 122.25ZM144.202 94.15C144.202 93.45 144.002 92.65 143.702 91.95H143.202C142.502 93.95 141.502 94.95 139.002 94.95C136.802 94.95 135.302 93.75 134.302 92.75L127.202 100.85L127.702 101.35L130.202 99.15C131.702 100.35 132.902 101.35 136.302 101.65V122.05L121.802 97.15C120.602 95.15 118.802 92.45 115.402 92.45C111.502 92.45 108.002 95.85 108.502 101.35H109.202C109.402 99.85 110.202 98.15 111.902 98.15C113.102 98.15 114.402 99.35 115.102 100.65V108.75C110.702 108.75 107.702 110.75 107.702 114.45C107.702 116.45 108.702 119.35 111.602 120.15V119.65C111.102 119.15 110.902 118.65 110.902 117.95C110.902 116.75 111.902 115.75 113.602 115.75H114.802V126.05C109.602 126.05 105.502 129.05 105.502 133.95C105.502 138.65 109.402 140.85 113.902 140.55V140.05C111.202 139.85 110.002 138.55 110.002 136.85C110.002 134.65 111.502 133.65 113.402 133.65C115.402 133.65 117.102 134.85 118.302 136.35L125.402 128.45L124.902 127.95L123.202 129.95C120.502 127.45 119.002 126.75 115.802 126.25V101.55L135.602 135.95H137.102V101.55C140.702 101.35 144.202 98.35 144.202 94.15ZM162.102 126.45L156.002 131.15L149.902 126.25V123.25L161.502 115.35V115.15L155.602 106.25L142.802 113.15V129.35L140.302 131.35L140.802 131.85L143.002 130.15L151.402 136.25L162.502 127.35C162.402 127.35 162.102 126.45 162.102 126.45ZM149.802 122.25V110.15L150.302 109.95L155.702 118.55C155.802 118.55 149.802 122.25 149.802 122.25ZM202.202 108.95L200.502 110.15L195.802 106.25L190.402 111.15L192.602 113.35V131.75L186.702 128.05V112.85L188.702 111.65L183.002 106.25L177.602 111.15L179.802 113.35V131.05L179.102 131.55L173.902 127.85V113.15C173.902 109.75 172.202 108.75 170.202 107.45C168.502 106.25 167.502 105.45 167.502 103.75C167.502 102.25 169.002 101.55 169.702 101.05V100.55C167.702 100.55 162.602 102.55 162.602 107.15C162.602 109.65 163.802 110.55 165.102 111.85C166.302 113.05 167.602 114.05 167.602 116.25V130.55L164.902 132.55L165.402 133.05L167.902 131.05L173.602 135.95L179.702 131.75L186.602 135.95L199.602 128.35V111.85L202.802 109.35L202.202 108.95ZM248.002 95.45L245.502 97.65L240.102 92.75L232.002 98.65V93.25H231.302L231.502 133.05C230.802 133.05 228.502 132.55 226.802 132.05L226.302 98.85C226.302 96.35 224.602 92.95 220.202 92.95C215.802 92.95 212.802 96.35 212.802 99.85H213.502C213.702 98.35 214.502 97.15 216.002 97.15C217.502 97.15 218.702 98.15 218.702 101.35V110.95C214.302 111.15 211.602 113.65 211.602 116.85C211.602 118.85 212.602 121.75 215.502 121.75V121.25C214.502 120.75 214.302 120.05 214.302 119.55C214.302 118.05 215.502 117.55 217.502 117.55H218.502V132.75C214.802 133.95 213.302 136.65 213.302 139.65C213.302 143.85 216.502 146.75 221.402 146.75C224.802 146.75 227.802 146.25 230.702 145.55C233.202 145.05 236.402 144.35 237.802 144.35C239.802 144.35 240.502 145.35 240.502 146.55C240.502 148.25 239.802 149.05 238.802 149.25V149.75C242.702 149.05 245.202 146.55 245.202 142.85C245.202 139.15 241.502 136.95 237.602 136.95C235.602 136.95 231.502 137.65 228.502 138.15C225.102 138.85 221.602 139.35 220.602 139.35C218.902 139.35 216.902 138.65 216.902 136.15C216.902 134.15 218.602 132.45 222.802 132.45C225.002 132.45 227.702 132.65 230.402 133.45C233.402 134.15 236.102 134.95 238.502 134.95C242.202 134.95 245.402 133.75 245.402 128.55V98.35L248.402 95.85L248.002 95.45ZM237.902 110.45C237.202 111.15 236.202 111.95 234.902 111.95C233.602 111.95 232.402 111.25 231.902 110.45V99.55L234.402 97.85L237.802 101.05C237.902 101.05 237.902 110.45 237.902 110.45ZM237.902 117.75C237.402 117.25 236.202 116.55 234.902 116.55C233.602 116.55 232.402 117.25 231.902 117.75V111.35C232.402 111.85 233.602 112.55 234.902 112.55C236.202 112.55 237.402 111.85 237.902 111.35V117.75ZM237.902 129.35C237.902 131.35 236.702 133.25 234.002 133.25H232.002V118.75C232.502 118.25 233.702 117.55 235.002 117.55C236.302 117.55 237.202 118.25 238.002 118.75C237.902 118.75 237.902 129.35 237.902 129.35ZM271.602 111.85L263.702 106.15L251.602 113.05V129.05L249.102 131.05L249.302 131.55L251.302 130.05L259.202 135.95L271.502 128.55C271.602 128.65 271.602 111.85 271.602 111.85ZM258.302 127.35V109.65L264.402 114.05V131.55C264.502 131.55 258.302 127.35 258.302 127.35ZM295.002 106.75H294.502C293.802 107.25 293.002 107.75 292.302 107.75C291.302 107.75 290.102 107.25 289.602 106.55H289.102L284.902 111.25L280.702 106.55L273.302 111.45L273.502 111.95L275.502 110.75L278.002 113.45V128.95L274.802 131.45L275.302 131.95L276.802 130.75L282.702 135.65L290.302 130.45L290.102 129.95L287.902 131.15L284.902 128.65V111.45C286.102 112.65 287.602 113.95 289.302 113.95C292.702 114.15 294.702 110.65 295.002 106.75ZM324.502 130.35L316.102 136.05L304.802 118.85L312.902 106.35H313.402C314.402 107.35 315.902 108.35 317.602 108.35C319.302 108.35 320.602 107.35 321.302 106.35H321.802C321.602 111.25 318.102 114.25 315.702 114.25C313.202 114.25 312.002 113.05 310.502 112.25L309.802 113.45L322.102 131.65L324.602 130.15V130.35H324.502ZM297.402 129.15L294.202 131.65L294.702 132.15L296.202 130.95L301.602 135.85L309.002 130.95L308.502 130.45L306.502 131.65L304.002 129.15V91.25H303.802L294.902 97.15V97.65C295.902 98.15 297.402 98.35 297.402 101.35V129.15ZM365.302 96.35C365.302 91.45 360.602 90.25 356.902 90.25V90.95C359.102 90.95 360.802 91.65 360.802 93.45C360.802 94.45 360.102 95.95 357.802 95.95C356.102 95.95 352.402 94.95 349.702 93.95C346.502 92.95 343.602 91.95 341.102 91.95C336.202 91.95 332.702 95.65 332.702 99.85C332.702 103.55 335.402 104.75 336.402 105.25L336.602 104.75C335.902 104.25 335.102 103.75 335.102 102.25C335.102 101.25 336.102 99.55 338.502 99.55C340.702 99.55 343.702 100.55 347.602 101.75C351.002 102.75 354.702 103.45 356.702 103.75V111.35L353.002 114.55V114.75L356.702 117.95V128.55C354.702 129.75 352.502 130.05 350.602 130.05C346.902 130.05 343.702 129.05 341.002 126.15L351.102 121.25V104.05L338.802 109.45C340.002 106.25 342.702 104.05 345.202 102.35L345.002 101.85C337.602 103.85 331.002 110.45 331.002 118.85C331.002 128.65 339.102 136.05 348.202 136.05C358.002 136.05 364.402 128.15 364.402 120.05H363.902C362.402 123.25 360.202 126.15 357.502 127.65V117.55L361.402 114.35V114.15L357.702 110.95V103.55C361.602 103.55 365.302 101.05 365.302 96.35ZM343.902 123.45L340.902 124.95C339.202 122.75 338.202 119.75 338.202 115.65C338.202 113.95 338.402 111.95 338.902 110.45L344.102 108.25L343.902 123.45ZM373.902 93.95H373.602L368.702 98.15V98.35L372.902 103.05H373.402L378.302 98.85V98.65L373.902 93.95ZM381.302 130.35L379.302 131.55L376.802 129.05V112.05L379.302 110.35L378.802 109.85L377.102 111.35L372.702 106.15L365.602 111.05L366.102 111.75L367.802 110.55L370.002 113.25V129.25L366.802 131.75L367.002 132.25L368.702 131.05L374.102 135.95L381.502 131.05L381.302 130.35ZM422.302 130.05L420.602 131.25L417.902 128.75V112.15L420.402 110.15L419.902 109.65L417.902 111.35L412.202 106.15L404.802 111.35L399.102 106.15L392.202 111.35L387.802 106.15L380.702 111.05L380.902 111.75L382.602 110.55L385.102 113.25V129.25L383.102 131.25L388.802 135.95L394.202 131.05L392.002 128.85V112.15L394.202 110.65L397.902 114.05V128.85L395.902 130.85L401.602 135.55L407.002 130.65L404.802 128.45V112.15L406.802 110.95L410.702 114.35V129.15L409.002 130.85L414.702 136.05L422.302 130.85V130.05ZM443.702 126.45L437.602 131.15L431.502 126.25V123.25L443.102 115.35V115.15L437.202 106.25L424.402 113.15V129.85L433.002 135.95L444.102 127.05C444.002 127.15 443.702 126.45 443.702 126.45ZM431.402 122.25V110.15L431.902 109.95L437.302 118.55L431.402 122.25ZM466.102 120.05L461.402 116.35C464.602 113.65 465.802 109.95 465.802 107.45V105.95H465.302C464.802 107.15 463.802 108.45 461.902 108.45C459.902 108.45 458.702 107.45 457.502 105.95L446.402 112.05V120.95L450.602 124.15C446.402 127.85 445.702 130.25 445.702 132.25C445.702 134.75 446.902 136.45 448.902 137.15L449.102 136.65C448.602 136.15 448.102 135.95 448.102 134.65C448.102 133.95 449.102 132.65 451.102 132.65C453.602 132.65 455.002 134.35 455.802 135.15L466.402 128.75V119.85C466.402 120.05 466.102 120.05 466.102 120.05ZM463.402 112.65C461.702 115.65 458.002 118.55 455.802 120.05L453.102 117.85V109.25C454.102 111.75 456.802 113.65 459.502 113.65C461.202 113.65 462.202 113.35 463.402 112.65ZM459.202 132.35C458.002 129.65 455.002 127.65 452.102 127.65C451.402 127.65 449.402 127.65 447.402 128.85C448.602 126.85 451.802 123.45 456.002 120.95L459.002 123.45L459.202 132.35Z" fill="black" style="fill:black;fill-opacity:1;"/>
</g>
<defs>
<clipPath id="clip0_1728_5728">
<rect width="452.8" height="59.5" fill="white" style="fill:white;fill-opacity:1;" transform="translate(13.6016 90.25)"/>
</clipPath>
</defs>
</svg>
