<svg width="480" height="240" viewBox="0 0 480 240" fill="none" xmlns="http://www.w3.org/2000/svg">
<path fill-rule="evenodd" clip-rule="evenodd" d="M67.252 80.5L89.7475 101.226V101.222V80.5478H94.1265V101.319L116.723 80.5V104.131H126V138.216H116.751V159.259L94.1265 139.381V159.487H89.7475V139.709L67.2775 159.5V138.216H58V104.131H67.252V80.5ZM86.4463 108.457H62.379V133.891H67.272V125.868L86.4463 108.457ZM71.6562 127.787V149.848L89.7475 133.914V111.355L71.6562 127.787ZM94.2525 133.703V111.334L112.349 127.767V138.216H112.372V149.623L94.2525 133.703ZM116.751 133.891H121.621V108.457H97.733L116.751 125.688V133.891ZM112.344 104.131V90.4496L97.4943 104.131H112.344ZM86.4803 104.131H71.631V90.4496L86.4803 104.131Z" fill="black" style="fill:black;fill-opacity:1;"/>
<mask id="mask0_1728_5622" style="mask-type:luminance" maskUnits="userSpaceOnUse" x="144" y="91" width="279" height="58">
<path d="M423 91H144.75V149H423V91Z" fill="white" style="fill:white;fill-opacity:1;"/>
</mask>
<g mask="url(#mask0_1728_5622)">
<path d="M234.19 103.612H236.971V109.341H233.372C230.551 109.341 228.448 110.02 227.053 111.381C225.667 112.738 224.97 114.969 224.97 118.071V136.858H219.288V103.743H224.97V109.027C224.97 109.325 225.12 109.472 225.412 109.472C225.578 109.472 225.704 109.431 225.793 109.346C225.882 109.26 225.959 109.092 226.048 108.835C227.142 105.357 229.862 103.616 234.194 103.616H234.19V103.612ZM271.986 110.711C273.478 113.363 274.227 116.559 274.227 120.294C274.227 124.03 273.482 127.226 271.986 129.878C270.491 132.53 268.553 134.516 266.174 135.832C263.796 137.148 261.238 137.806 258.503 137.806C253.112 137.806 249.323 135.64 247.135 131.308C246.969 130.969 246.754 130.797 246.503 130.797C246.251 130.797 246.122 130.924 246.122 131.181V148.951H240.439V103.738H246.122V109.407C246.122 109.66 246.247 109.791 246.503 109.791C246.758 109.791 246.965 109.624 247.135 109.28C249.323 104.948 253.112 102.782 258.503 102.782C261.238 102.782 263.796 103.44 266.174 104.756C268.553 106.072 270.487 108.058 271.986 110.711ZM268.549 120.294C268.549 116.387 267.508 113.342 265.425 111.156C263.342 108.97 260.598 107.879 257.182 107.879C253.765 107.879 251.021 108.974 248.938 111.156C246.851 113.342 246.089 116.391 246.089 120.294C246.089 124.197 246.855 127.246 248.938 129.432C251.021 131.623 253.769 132.71 257.182 132.71C260.594 132.71 263.342 131.615 265.425 129.432C267.508 127.25 268.549 124.197 268.549 120.294ZM176.292 110.76C177.784 113.412 178.534 116.608 178.534 120.343C178.534 124.079 177.788 127.275 176.292 129.927C174.797 132.579 172.86 134.565 170.481 135.881C168.102 137.197 165.545 137.855 162.809 137.855C157.419 137.855 153.63 135.689 151.441 131.357C151.275 131.018 151.06 130.847 150.809 130.847C150.557 130.847 150.428 130.973 150.428 131.23V149H144.75V103.788H150.432V109.456C150.432 109.71 150.558 109.84 150.813 109.84C151.068 109.84 151.275 109.673 151.445 109.329C153.634 104.997 157.423 102.831 162.813 102.831C165.549 102.831 168.106 103.489 170.485 104.805C172.864 106.121 174.797 108.108 176.297 110.76H176.292ZM172.852 120.343C172.852 116.436 171.81 113.392 169.727 111.205C167.644 109.023 164.896 107.928 161.484 107.928C158.071 107.928 155.324 109.023 153.241 111.205C151.158 113.396 150.392 116.441 150.392 120.343C150.392 124.246 151.158 127.295 153.241 129.481C155.324 131.672 158.067 132.759 161.484 132.759C164.9 132.759 167.644 131.664 169.727 129.481C171.81 127.299 172.852 124.246 172.852 120.343ZM209.245 126.339H215.244C214.445 129.44 212.812 132.126 210.352 134.394C207.888 136.666 204.362 137.798 199.77 137.798C196.317 137.798 193.278 137.087 190.648 135.665C188.017 134.242 185.987 132.219 184.552 129.583C183.118 126.952 182.404 123.854 182.404 120.286C182.404 116.718 183.101 113.62 184.487 110.988C185.873 108.357 187.823 106.33 190.327 104.908C192.832 103.485 195.766 102.774 199.134 102.774C202.502 102.774 205.294 103.477 207.628 104.875C209.967 106.276 211.709 108.136 212.869 110.445C214.028 112.762 214.603 115.296 214.603 118.055V121.876H188.398C188.605 125.186 189.715 127.822 191.713 129.771C193.711 131.725 196.398 132.702 199.766 132.702C202.502 132.702 204.601 132.142 206.052 131.014C207.503 129.886 208.565 128.329 209.242 126.331L209.245 126.339ZM188.281 117.106H208.111C208.111 114.221 207.373 111.957 205.898 110.322C204.423 108.692 202.109 107.87 198.952 107.87C196.005 107.87 193.594 108.667 191.721 110.261C189.849 111.851 188.702 114.135 188.281 117.106ZM278.811 136.85H284.497V91H278.811V136.854V136.85ZM358.723 100.122H365.362V92.9535H358.723V100.122ZM383.237 131.917C382.205 132.024 381.58 132.076 381.375 132.076C381.083 132.076 380.842 131.991 380.677 131.819C380.51 131.652 380.422 131.419 380.422 131.116C380.422 130.908 380.477 130.278 380.585 129.236C380.685 128.198 380.742 126.592 380.742 124.43V108.585H388.848L387.25 103.735H380.745V94.8171H375.065V103.73H368.883V108.582H375.065V126.016C375.065 129.67 375.952 132.387 377.717 134.169C379.485 135.951 382.18 136.846 385.805 136.846H390.225V131.754H388.013C385.865 131.754 384.275 131.807 383.242 131.913L383.237 131.917ZM417.585 103.735L408.175 131.521C408.05 131.864 407.85 132.31 407.207 132.31C406.562 132.31 406.36 131.864 406.233 131.521L396.823 103.735H391.027L401.925 136.85H405.78C406.03 136.85 406.223 136.875 406.353 136.915C406.478 136.956 406.583 137.063 406.668 137.234C406.833 137.488 406.813 137.872 406.603 138.379L404.835 143.217C404.58 143.855 404.098 144.174 403.385 144.174C403.13 144.174 402.542 144.12 401.617 144.014C400.69 143.908 399.495 143.855 398.02 143.855H393.408V148.947H399.47C403.008 148.947 405.135 148.342 406.967 147.132C408.8 145.923 410.218 143.789 411.23 140.732L423 105.006V103.735H417.592H417.585ZM339.49 116.089L330.585 103.735H324.332V105.006L335.003 119.334L321.992 135.575V136.846H328.372L338.73 123.535L348.392 136.846H354.52V135.575L343.212 120.29L355.47 105.071V103.735H349.09L339.492 116.089H339.49ZM359.328 136.85H365.013V103.738H359.328V136.854V136.85ZM321.915 126.339C321.113 129.44 319.485 132.126 317.025 134.394C314.56 136.666 311.035 137.798 306.443 137.798C302.99 137.798 299.95 137.087 297.32 135.665C294.685 134.242 292.66 132.219 291.225 129.583C289.794 126.952 289.081 123.854 289.081 120.286C289.081 116.718 289.778 113.62 291.164 110.988C292.555 108.357 294.5 106.33 297.005 104.908C299.508 103.485 302.443 102.774 305.815 102.774C309.188 102.774 311.975 103.477 314.312 104.875C316.648 106.276 318.395 108.136 319.552 110.445C320.712 112.762 321.288 115.296 321.288 118.055V121.876H295.08C295.29 125.186 296.395 127.822 298.395 129.771C300.392 131.725 303.08 132.702 306.448 132.702C309.183 132.702 311.283 132.142 312.733 131.014C314.183 129.886 315.245 128.329 315.918 126.331H321.92L321.915 126.339ZM295.095 117.106H314.925C314.925 114.221 314.187 111.957 312.717 110.322C311.24 108.692 308.927 107.87 305.77 107.87C302.822 107.87 300.413 108.667 298.54 110.261C296.668 111.851 295.518 114.135 295.1 117.106H295.095Z" fill="black" style="fill:black;fill-opacity:1;"/>
</g>
</svg>
