<svg width="480" height="240" viewBox="0 0 480 240" fill="none" xmlns="http://www.w3.org/2000/svg">
<g clip-path="url(#clip0_1094_5640)">
<path d="M110.997 106.674C103.439 106.674 99.7166 113.36 99.7166 122.314V144.754H89V97.4938H99.491V109.734H99.7166C101.973 102.14 106.372 96.1338 113.253 96.1338C118.104 96.1338 120.134 97.8338 120.134 97.8338L115.284 107.58C115.284 107.58 113.817 106.674 110.997 106.674ZM239.934 113.247V144.867H229.556V117.1C229.556 109.167 227.075 104.974 220.757 104.974C214.215 104.974 211.056 110.3 211.056 120.5V144.867H200.678V117.1C200.678 109.507 198.196 104.974 191.992 104.974C184.772 104.974 182.065 111.32 182.065 120.5V144.867H171.574V97.4938H182.065V108.26H182.178C183.757 100.894 188.269 96.2471 195.827 96.2471C203.272 96.2471 208.123 100.327 210.041 107.467C211.846 100.554 216.471 96.2471 223.69 96.2471C233.504 96.2471 239.934 102.48 239.934 113.247ZM141.116 96.1338C131.415 96.1338 125.211 100.667 122.278 108.94L131.189 112.227C132.769 107.24 136.153 104.407 141.342 104.407C147.095 104.407 150.592 107.014 150.592 110.867C150.592 114.834 147.885 115.74 141.793 116.76C135.025 117.894 118.781 118.234 118.781 131.947C118.781 139.994 125.436 146 135.476 146C143.034 146 148.223 142.94 150.592 137.16H150.705V144.867H161.083V115.74C160.97 102.934 154.653 96.1338 141.116 96.1338ZM150.818 122.54C150.818 132.514 145.967 138.86 138.071 138.86C132.543 138.86 129.272 135.8 129.272 131.267C129.272 127.074 132.656 124.127 139.199 122.88C145.854 121.634 149.238 120.16 150.818 116.42V122.54ZM276.935 96.2471C269.038 96.2471 263.736 100.667 261.48 107.24V97.4938H250.425V163H261.368V135.12H261.48C263.962 142.26 269.038 146.227 276.935 146.227C289.569 146.227 298.593 135.8 298.593 121.067C298.593 106.334 289.569 96.2471 276.935 96.2471ZM274.227 137.387C265.541 137.387 260.691 131.04 260.691 121.18C260.691 111.32 266.105 104.974 274.227 104.974C282.349 104.974 287.764 111.66 287.764 121.18C287.764 130.7 282.349 137.387 274.227 137.387Z" fill="black" style="fill:black;fill-opacity:1;"/>
<path d="M407.001 144.527V144.867H364.248V144.527C370.452 141.013 374.626 137.5 378.461 133.76H396.059L407.001 144.527ZM396.397 88.6533L385.568 78H385.23C385.23 78 385.455 97.8333 367.181 115.967C349.357 133.647 328.488 133.76 328.488 133.76V134.1L339.543 144.98C339.543 144.98 360.187 145.207 378.349 127.187C396.51 109.28 396.397 88.6533 396.397 88.6533Z" fill="black" style="fill:black;fill-opacity:1;"/>
</g>
<defs>
<clipPath id="clip0_1094_5640">
<rect width="318" height="85" fill="white" style="fill:white;fill-opacity:1;" transform="translate(89 78)"/>
</clipPath>
</defs>
</svg>
