<svg width="480" height="240" viewBox="0 0 480 240" fill="none" xmlns="http://www.w3.org/2000/svg">
<g clip-path="url(#clip0_1094_5642)">
<path d="M408 107.429V102.667C408 101.905 407.244 101.143 406.488 101.143H389.848V92.0004C389.848 91.2385 389.092 90.4766 388.336 90.4766H382.096C381.15 90.4766 380.583 91.2385 380.583 92.0004V101.143H370.751C369.806 101.143 369.238 101.905 369.238 102.667V107.429C369.238 108.191 369.995 108.953 370.751 108.953H380.583V123.048C380.583 133.905 385.688 138.858 396.466 138.858H405.353C406.299 138.858 406.866 138.096 406.866 137.334V132.572C406.866 131.81 406.109 131.048 405.353 131.048H397.979C392.117 131.048 390.037 128.762 390.037 122.858V108.762H406.677C407.244 108.762 408 108.191 408 107.429Z" fill="black" style="fill:black;fill-opacity:1;"/>
<path d="M358.084 86.667H349.575C348.63 86.667 348.062 87.4289 348.062 88.1908V94.286C348.062 95.0479 348.819 95.8098 349.575 95.8098H358.084C359.029 95.8098 359.597 95.0479 359.597 94.286V88.1908C359.597 87.2384 358.84 86.667 358.084 86.667Z" fill="black" style="fill:black;fill-opacity:1;"/>
<path d="M359.218 131.238V102.666C359.218 101.904 358.462 101.143 357.705 101.143H338.419C337.473 101.143 336.906 101.904 336.906 102.666V107.428C336.906 108.19 337.663 108.952 338.419 108.952H349.764V131.238H338.419C337.473 131.238 336.906 132 336.906 132.762V137.524C336.906 138.285 337.663 139.047 338.419 139.047H370.941C371.887 139.047 372.454 138.285 372.454 137.524V132.762C372.454 132 371.697 131.238 370.941 131.238H359.218Z" fill="black" style="fill:black;fill-opacity:1;"/>
<path d="M329.72 131.238H319.888V88.1908C319.888 87.4289 319.131 86.667 318.375 86.667H299.278C298.332 86.667 297.765 87.4289 297.765 88.1908V92.9527C297.765 93.7146 298.521 94.4765 299.278 94.4765H310.623V131.238H297.954C297.009 131.238 296.441 132 296.441 132.762V137.524C296.441 138.286 297.198 139.048 297.954 139.048H329.72C330.665 139.048 331.233 138.286 331.233 137.524V132.762C331.233 131.81 330.665 131.238 329.72 131.238Z" fill="black" style="fill:black;fill-opacity:1;"/>
<path d="M277.908 100.381C274.694 100.381 272.236 101.143 270.534 102.857L268.265 104.952H266.185L265.429 102.095C265.24 101.524 264.673 100.952 263.916 100.952H259.567C258.622 100.952 258.055 101.714 258.055 102.476V151.809C258.055 152.571 258.811 153.333 259.567 153.333H265.807C266.752 153.333 267.32 152.571 267.32 151.809V141.143L266.563 135.428L268.643 134.857L270.912 136.952C272.614 138.667 274.883 139.428 278.097 139.428C287.363 139.428 293.035 132.952 293.035 119.809C292.846 106.857 287.363 100.381 277.908 100.381ZM274.694 131.809C269.967 131.809 267.32 129.333 267.32 124.762V115.619C267.32 111.048 269.967 108.571 274.694 108.571C280.556 108.571 283.014 112.19 283.014 120.19C283.203 128 280.556 131.809 274.694 131.809Z" fill="black" style="fill:black;fill-opacity:1;"/>
<path d="M231.397 100.381C219.296 100.381 212.867 106.857 212.867 120C212.867 133.143 219.296 139.619 231.019 139.619C240.095 139.619 246.146 135.809 247.658 129.143C247.847 128.19 247.091 127.428 246.146 127.428H240.473C239.906 127.428 239.339 127.809 238.961 128.381C238.015 131.238 235.179 132.571 231.208 132.571C225.158 132.571 222.321 129.333 221.943 121.524H248.037C249.738 107.048 243.877 100.381 231.397 100.381ZM222.51 115.619C223.456 109.905 226.292 107.238 231.397 107.238C236.881 107.238 239.528 110.095 239.528 115.619H222.51Z" fill="black" style="fill:black;fill-opacity:1;"/>
<path d="M194.338 102.857L192.258 104.952H190.178L189.421 102.286C189.232 101.524 188.665 101.143 187.909 101.143H174.106C173.16 101.143 172.593 101.905 172.593 102.667V107.428C172.593 108.19 173.349 108.952 174.106 108.952H182.236V131.238H172.782C171.837 131.238 171.27 132 171.27 132.762V137.524C171.27 138.286 172.026 139.048 172.782 139.048H202.468C203.414 139.048 203.981 138.286 203.981 137.524V132.762C203.981 132 203.225 131.238 202.468 131.238H191.501V115.428C191.501 111.048 194.149 108.762 199.065 108.762H207.195C208.141 108.762 208.708 108 208.708 107.238V101.905C208.708 101.143 207.952 100.381 207.195 100.381H202.279C199.065 100.381 196.228 101.143 194.338 102.857Z" fill="black" style="fill:black;fill-opacity:1;"/>
<path d="M72 84.9524C72 82.2857 74.269 80 76.9162 80H99.9842C102.631 80 104.9 82.2857 104.9 84.9524V106.667H76.9162C74.269 106.667 72 104.381 72 101.714V84.9524Z" fill="black" style="fill:black;fill-opacity:1;"/>
<path d="M105.09 106.667H133.263C135.91 106.667 138.179 108.953 138.179 111.619V128.381C138.179 131.048 135.91 133.334 133.263 133.334H105.09V106.667Z" fill="black" style="fill:black;fill-opacity:1;"/>
<path d="M72 138.285C72 135.619 74.269 133.333 76.9162 133.333H105.089V155.047C105.089 157.714 102.82 160 100.173 160H76.9162C74.269 160 72 157.714 72 155.047V138.285Z" fill="black" style="fill:black;fill-opacity:1;"/>
</g>
<defs>
<clipPath id="clip0_1094_5642">
<rect width="336" height="80" fill="white" style="fill:white;fill-opacity:1;" transform="translate(72 80)"/>
</clipPath>
</defs>
</svg>
