<svg width="480" height="240" viewBox="0 0 480 240" fill="none" xmlns="http://www.w3.org/2000/svg">
<mask id="mask0_1728_5711" style="mask-type:luminance" maskUnits="userSpaceOnUse" x="140" y="50" width="200" height="140">
<path d="M140.035 50.3672H339.407V189.634H140.035V50.3672Z" fill="white" style="fill:white;fill-opacity:1;"/>
</mask>
<g mask="url(#mask0_1728_5711)">
<path fill-rule="evenodd" clip-rule="evenodd" d="M222.82 65.6132C229.255 58.9138 238.212 54.7651 248.108 54.7651C261.301 54.7651 272.736 62.0949 278.893 73.0164C284.358 70.5732 290.278 69.3118 296.265 69.3148C320.013 69.3148 339.291 88.7389 339.291 112.707C339.291 136.676 320.013 156.1 296.265 156.1C293.362 156.1 290.533 155.808 287.762 155.257C282.375 164.859 272.076 171.383 260.348 171.383C255.574 171.392 250.86 170.309 246.568 168.216C241.108 181.044 228.39 190.059 213.584 190.059C198.118 190.059 184.998 180.311 179.94 166.604C177.689 167.079 175.394 167.318 173.094 167.316C154.696 167.316 139.816 152.217 139.816 133.672C139.816 121.212 146.516 110.363 156.455 104.5C154.347 99.642 153.261 94.4023 153.267 89.1068C153.267 67.7037 170.638 50.4053 192.042 50.4053C204.576 50.4053 215.79 56.3791 222.827 65.6513" fill="black" style="fill:black;fill-opacity:1;"/>
</g>
<path fill-rule="evenodd" clip-rule="evenodd" d="M168.87 122.785C168.744 123.112 168.914 123.181 168.955 123.238C169.329 123.51 169.71 123.706 170.091 123.927C172.128 125.004 174.049 125.319 176.057 125.319C180.147 125.319 182.691 123.142 182.691 119.639V119.57C182.691 116.33 179.817 115.15 177.135 114.307L176.784 114.193C174.753 113.535 173.001 112.962 173.001 111.628V111.56C173.001 110.416 174.028 109.573 175.611 109.573C177.37 109.573 179.466 110.159 180.808 110.9C180.808 110.9 181.205 111.157 181.349 110.773C181.428 110.566 182.112 108.736 182.185 108.53C182.263 108.316 182.126 108.154 181.986 108.07C180.447 107.132 178.321 106.494 176.122 106.494L175.714 106.496C171.969 106.496 169.352 108.761 169.352 112V112.07C169.352 115.486 172.24 116.6 174.937 117.369L175.371 117.504C177.336 118.108 179.036 118.633 179.036 120.011V120.08C179.036 121.348 177.929 122.294 176.155 122.294C175.466 122.294 173.267 122.282 170.885 120.776C170.597 120.608 170.433 120.488 170.211 120.352C170.094 120.281 169.8 120.153 169.673 120.537L168.867 122.78M228.751 122.78C228.626 123.106 228.796 123.175 228.838 123.233C229.211 123.504 229.593 123.7 229.974 123.921C232.012 124.998 233.932 125.314 235.941 125.314C240.031 125.314 242.574 123.137 242.574 119.633V119.564C242.574 116.324 239.708 115.144 237.018 114.301L236.667 114.188C234.637 113.529 232.885 112.956 232.885 111.622V111.554C232.885 110.41 233.911 109.568 235.494 109.568C237.253 109.568 239.342 110.153 240.691 110.894C240.691 110.894 241.088 111.151 241.233 110.767C241.311 110.56 241.996 108.73 242.062 108.525C242.14 108.31 242.003 108.148 241.864 108.064C240.325 107.126 238.199 106.488 236 106.488L235.591 106.49C231.845 106.49 229.229 108.755 229.229 111.994V112.064C229.229 115.48 232.117 116.594 234.814 117.364L235.247 117.498C237.219 118.102 238.912 118.627 238.912 120.005V120.074C238.912 121.342 237.805 122.288 236.031 122.288C235.34 122.288 233.136 122.276 230.761 120.77C230.473 120.603 230.305 120.487 230.086 120.346C230.012 120.299 229.667 120.164 229.549 120.531L228.743 122.774M269.643 115.913C269.643 117.892 269.274 119.453 268.551 120.56C267.83 121.652 266.741 122.187 265.223 122.187C263.706 122.187 262.621 121.657 261.91 120.567C261.194 119.468 260.833 117.899 260.833 115.92C260.833 113.941 261.196 112.387 261.91 111.295C262.62 110.21 263.699 109.69 265.223 109.69C266.748 109.69 267.833 110.216 268.551 111.295C269.278 112.387 269.643 113.941 269.643 115.92M273.059 112.248C272.722 111.112 272.201 110.115 271.505 109.279C270.808 108.444 269.929 107.77 268.881 107.286C267.84 106.798 266.609 106.553 265.216 106.553C263.823 106.553 262.599 106.8 261.551 107.286C260.51 107.772 259.623 108.444 258.927 109.279C258.232 110.115 257.71 111.112 257.373 112.248C257.039 113.377 256.87 114.608 256.87 115.92C256.87 117.232 257.039 118.464 257.373 119.593C257.708 120.729 258.231 121.726 258.927 122.561C259.624 123.397 260.51 124.064 261.551 124.54C262.599 125.015 263.831 125.257 265.216 125.257C266.601 125.257 267.833 125.015 268.874 124.54C269.914 124.065 270.801 123.397 271.498 122.561C272.193 121.726 272.714 120.729 273.052 119.593C273.384 118.464 273.554 117.232 273.554 115.92C273.554 114.616 273.384 113.377 273.052 112.248M301.125 121.63C301.013 121.298 300.689 121.424 300.689 121.424C300.192 121.613 299.663 121.789 299.098 121.877C298.529 121.967 297.896 122.011 297.229 122.011C295.58 122.011 294.26 121.52 293.322 120.545C292.377 119.571 291.849 118.002 291.856 115.876C291.861 113.941 292.329 112.49 293.168 111.376C293.997 110.276 295.272 109.705 296.958 109.705C298.365 109.705 299.443 109.868 300.571 110.221C300.571 110.221 300.839 110.338 300.967 109.985C301.267 109.157 301.488 108.563 301.81 107.654C301.901 107.394 301.678 107.284 301.597 107.253C301.154 107.08 300.109 106.796 299.317 106.677C298.577 106.564 297.719 106.505 296.752 106.505C295.315 106.505 294.04 106.751 292.948 107.237C291.856 107.723 290.932 108.396 290.199 109.231C289.466 110.067 288.909 111.064 288.535 112.2C288.165 113.328 287.978 114.567 287.978 115.879C287.978 118.709 288.74 121.003 290.25 122.681C291.76 124.367 294.032 125.217 296.994 125.217C298.746 125.217 300.541 124.863 301.831 124.353C301.831 124.353 302.078 124.234 301.971 123.947L301.128 121.63M307.102 114.007C307.265 112.908 307.566 111.992 308.04 111.281C308.749 110.196 309.828 109.602 311.346 109.602C312.863 109.602 313.867 110.199 314.585 111.281C315.062 111.995 315.27 112.944 315.348 114.007L307.065 114.006L307.102 114.007ZM318.609 111.588C318.318 110.496 317.598 109.389 317.129 108.884C316.381 108.085 315.656 107.52 314.93 107.212C313.882 106.767 312.755 106.538 311.617 106.54C310.173 106.54 308.861 106.784 307.798 107.281C306.735 107.781 305.841 108.461 305.137 109.311C304.434 110.161 303.906 111.165 303.569 112.316C303.231 113.452 303.061 114.698 303.061 116.003C303.061 117.337 303.238 118.576 303.585 119.697C303.937 120.826 304.502 121.816 305.264 122.637C306.026 123.465 307.001 124.11 308.174 124.564C309.339 125.015 310.754 125.249 312.374 125.244C315.716 125.233 317.476 124.489 318.194 124.086C318.322 124.014 318.443 123.89 318.292 123.533L317.537 121.415C317.421 121.099 317.102 121.213 317.102 121.213C316.273 121.523 315.101 122.078 312.352 122.071C310.556 122.068 309.229 121.538 308.394 120.707C307.544 119.857 307.118 118.618 307.052 116.859L318.634 116.868C318.634 116.868 318.939 116.865 318.97 116.568C318.983 116.444 319.367 114.193 318.625 111.591L318.609 111.588ZM214.526 114.007C214.689 112.908 214.991 111.992 215.464 111.281C216.173 110.196 217.252 109.602 218.77 109.602C220.287 109.602 221.291 110.199 222.009 111.281C222.485 111.995 222.693 112.944 222.772 114.007L214.489 114.006L214.526 114.007ZM226.034 111.588C225.743 110.496 225.022 109.389 224.553 108.884C223.805 108.085 223.08 107.52 222.354 107.212C221.306 106.767 220.179 106.538 219.041 106.54C217.597 106.54 216.285 106.784 215.222 107.281C214.159 107.781 213.265 108.461 212.561 109.311C211.86 110.161 211.33 111.165 210.993 112.316C210.656 113.452 210.487 114.698 210.487 116.003C210.487 117.337 210.662 118.576 211.012 119.697C211.362 120.826 211.928 121.816 212.683 122.637C213.445 123.465 214.42 124.11 215.593 124.564C216.758 125.015 218.166 125.249 219.793 125.244C223.135 125.233 224.894 124.489 225.613 124.086C225.74 124.014 225.862 123.89 225.71 123.533L224.955 121.415C224.839 121.099 224.519 121.213 224.519 121.213C223.691 121.523 222.518 122.078 219.769 122.071C217.981 122.068 216.647 121.538 215.811 120.707C214.961 119.857 214.536 118.618 214.47 116.859L226.051 116.868C226.051 116.868 226.356 116.865 226.388 116.568C226.4 116.444 226.784 114.193 226.042 111.591L226.034 111.588ZM189.531 121.557C189.077 121.195 189.014 121.106 188.864 120.871C188.634 120.517 188.517 120.013 188.517 119.368C188.517 118.357 188.854 117.624 189.551 117.133C189.543 117.134 190.548 116.268 192.908 116.297C193.958 116.316 195.006 116.405 196.045 116.565V121.82H196.046C196.046 121.82 194.58 122.136 192.924 122.236C190.571 122.377 189.53 121.558 189.538 121.561L189.531 121.557ZM194.134 113.421C193.665 113.386 193.057 113.37 192.331 113.37C191.341 113.37 190.381 113.493 189.487 113.735C188.585 113.978 187.772 114.355 187.075 114.856C186.377 115.354 185.803 116.006 185.397 116.762C184.987 117.524 184.778 118.418 184.778 119.43C184.778 120.456 184.956 121.343 185.308 122.069C185.653 122.788 186.172 123.411 186.818 123.879C187.461 124.347 188.255 124.693 189.171 124.898C190.08 125.105 191.106 125.21 192.235 125.21C193.422 125.21 194.602 125.11 195.746 124.918C196.72 124.75 197.69 124.561 198.656 124.352C199.041 124.263 199.469 124.147 199.469 124.147C199.755 124.074 199.733 123.768 199.733 123.768L199.727 113.213C199.727 110.897 199.108 109.175 197.887 108.112C196.67 107.049 194.889 106.514 192.58 106.514C191.715 106.514 190.315 106.631 189.48 106.799C189.48 106.799 186.958 107.289 185.917 108.104C185.917 108.104 185.689 108.245 185.813 108.563L186.634 110.762C186.736 111.047 187.014 110.95 187.014 110.95C187.014 110.95 187.101 110.916 187.204 110.855C189.425 109.645 192.239 109.682 192.239 109.682C193.485 109.682 194.453 109.935 195.098 110.43C195.729 110.914 196.051 111.646 196.051 113.186V113.674C195.061 113.531 194.145 113.448 194.145 113.448L194.134 113.421ZM287.223 107.462C287.24 107.423 287.248 107.381 287.249 107.339C287.249 107.297 287.241 107.256 287.225 107.217C287.208 107.178 287.184 107.143 287.154 107.113C287.124 107.084 287.089 107.061 287.049 107.045C286.852 106.971 285.869 106.763 285.114 106.716C283.663 106.625 282.857 106.87 282.131 107.196C281.414 107.519 280.621 108.039 280.181 108.64L280.18 107.232C280.18 107.039 280.043 106.883 279.848 106.883H276.887C276.694 106.883 276.555 107.039 276.555 107.232V124.457C276.555 124.55 276.592 124.64 276.658 124.705C276.724 124.771 276.813 124.808 276.906 124.808H279.941C280.034 124.808 280.123 124.771 280.189 124.705C280.254 124.64 280.291 124.55 280.291 124.457V115.808C280.291 114.65 280.419 113.499 280.673 112.774C280.924 112.056 281.265 111.484 281.685 111.073C282.085 110.677 282.576 110.382 283.114 110.216C283.619 110.071 284.142 109.997 284.668 109.997C285.273 109.997 285.936 110.152 285.936 110.152C286.159 110.177 286.283 110.041 286.358 109.84C286.557 109.312 287.12 107.729 287.23 107.414" fill="#FFFFFE" style="fill:#FFFFFE;fill:color(display-p3 1.0000 1.0000 0.9961);fill-opacity:1;"/>
<path fill-rule="evenodd" clip-rule="evenodd" d="M258.882 99.5125C258.507 99.3992 258.125 99.3086 257.739 99.2413C257.22 99.1547 256.694 99.114 256.168 99.1197C254.076 99.1197 252.428 99.7105 251.271 100.877C250.121 102.035 249.339 103.8 248.947 106.121L248.806 106.905H246.181C246.181 106.905 245.86 106.892 245.793 107.241L245.362 109.645C245.332 109.875 245.431 110.019 245.739 110.018H248.294L245.701 124.489C245.498 125.654 245.266 126.613 245.009 127.34C244.755 128.056 244.507 128.594 244.202 128.984C243.907 129.361 243.627 129.639 243.144 129.801C242.745 129.935 242.286 129.997 241.784 129.997C241.504 129.997 241.131 129.95 240.856 129.895C240.581 129.841 240.438 129.779 240.233 129.692C240.233 129.692 239.933 129.578 239.815 129.879C239.719 130.124 239.038 131.997 238.957 132.229C238.875 132.457 238.99 132.638 239.135 132.69C239.475 132.811 239.728 132.889 240.191 132.998C240.835 133.15 241.377 133.159 241.885 133.159C242.95 133.159 243.919 133.01 244.724 132.72C245.533 132.427 246.237 131.918 246.86 131.228C247.534 130.484 247.957 129.705 248.363 128.642C248.764 127.589 249.105 126.281 249.379 124.757L251.984 110.018H255.792C255.792 110.018 256.113 110.029 256.18 109.681L256.611 107.277C256.641 107.047 256.543 106.903 256.234 106.905H252.537C252.555 106.821 252.723 105.521 253.148 104.297C253.329 103.774 253.67 103.353 253.958 103.063C254.228 102.787 254.56 102.581 254.927 102.461C255.328 102.336 255.747 102.276 256.168 102.282C256.516 102.282 256.857 102.324 257.118 102.378C257.476 102.454 257.615 102.494 257.709 102.522C258.086 102.637 258.136 102.526 258.21 102.343L259.094 99.9157C259.185 99.6547 258.964 99.5448 258.882 99.5125ZM207.226 124.52C207.226 124.713 207.088 124.871 206.894 124.871H203.828C203.634 124.871 203.496 124.713 203.496 124.52V99.8417C203.496 99.6489 203.634 99.4928 203.828 99.4928H206.894C207.088 99.4928 207.226 99.6489 207.226 99.8417V124.52Z" fill="#FFFFFE" style="fill:#FFFFFE;fill:color(display-p3 1.0000 1.0000 0.9961);fill-opacity:1;"/>
</svg>
