<svg width="480" height="240" viewBox="0 0 480 240" fill="none" xmlns="http://www.w3.org/2000/svg">
<g clip-path="url(#clip0_1728_5650)">
<path d="M123.995 70.165C96.4663 70.165 74.1484 92.4823 74.1484 120.011C74.1484 147.542 96.4663 169.857 123.995 169.857C151.528 169.857 173.843 147.542 173.843 120.011C173.843 92.4841 151.528 70.1674 123.995 70.1674L123.995 70.165ZM146.855 142.058C145.962 143.522 144.045 143.986 142.581 143.088C130.878 135.939 116.144 134.32 98.7931 138.284C97.1211 138.665 95.4544 137.617 95.0734 135.945C94.6907 134.272 95.7342 132.606 97.4103 132.225C116.398 127.886 132.686 129.754 145.825 137.784C147.29 138.683 147.754 140.594 146.855 142.058ZM152.956 128.485C151.831 130.314 149.438 130.891 147.611 129.766C134.212 121.531 113.788 119.145 97.9395 123.956C95.8842 124.577 93.7133 123.419 93.0895 121.367C92.4705 119.311 93.6294 117.145 95.6812 116.52C113.784 111.027 136.29 113.688 151.676 123.143C153.504 124.268 154.081 126.66 152.956 128.485ZM153.48 114.352C137.415 104.81 110.909 103.932 95.5699 108.588C93.1068 109.335 90.502 107.944 89.7556 105.481C89.0092 103.017 90.3984 100.414 92.8633 99.665C110.471 94.3198 139.742 95.3525 158.238 106.333C160.459 107.648 161.185 110.509 159.869 112.722C158.56 114.937 155.691 115.667 153.482 114.352H153.48ZM209.766 116.181C201.159 114.128 199.629 112.688 199.629 109.661C199.629 106.801 202.319 104.877 206.325 104.877C210.206 104.877 214.051 106.338 218.087 109.347C218.206 109.438 218.361 109.474 218.51 109.45C218.665 109.428 218.795 109.345 218.885 109.22L223.087 103.297C223.26 103.053 223.212 102.716 222.98 102.53C218.176 98.6769 212.772 96.8037 206.45 96.8037C197.159 96.8037 190.665 102.381 190.665 110.36C190.665 118.916 196.266 121.946 205.944 124.285C214.176 126.182 215.569 127.771 215.569 130.611C215.569 133.76 212.76 135.719 208.236 135.719C203.212 135.719 199.111 134.022 194.528 130.058C194.415 129.957 194.26 129.915 194.117 129.921C193.962 129.933 193.825 130.004 193.73 130.117L189.016 135.725C188.819 135.963 188.843 136.308 189.069 136.51C194.403 141.272 200.962 143.784 208.045 143.784C218.057 143.784 224.528 138.314 224.528 129.844C224.545 122.697 220.266 118.738 209.784 116.188L209.766 116.181ZM247.182 107.692C242.843 107.692 239.284 109.402 236.343 112.905V108.962C236.343 108.651 236.093 108.397 235.784 108.397H228.075C227.766 108.397 227.516 108.651 227.516 108.962V152.772C227.516 153.082 227.766 153.338 228.075 153.338H235.784C236.093 153.338 236.343 153.082 236.343 152.772V138.945C239.284 142.236 242.843 143.85 247.182 143.85C255.248 143.85 263.415 137.641 263.415 125.773C263.426 113.902 255.26 107.692 247.188 107.692L247.182 107.692ZM254.45 125.773C254.45 131.814 250.73 136.034 245.397 136.034C240.129 136.034 236.153 131.623 236.153 125.773C236.153 119.922 240.129 115.512 245.397 115.512C250.641 115.511 254.45 119.826 254.45 125.773ZM284.337 107.692C273.95 107.692 265.813 115.69 265.813 125.902C265.813 136.004 273.897 143.915 284.212 143.915C294.635 143.915 302.795 135.945 302.795 125.773C302.795 115.635 294.688 107.694 284.337 107.694V107.692ZM284.337 136.094C278.813 136.094 274.647 131.653 274.647 125.77C274.647 119.86 278.67 115.571 284.212 115.571C289.772 115.571 293.962 120.01 293.962 125.899C293.962 131.808 289.915 136.094 284.337 136.094ZM324.974 108.397H316.492V99.7269C316.492 99.4162 316.242 99.1627 315.932 99.1627H308.224C307.915 99.1627 307.659 99.4162 307.659 99.7269V108.397H303.956C303.647 108.397 303.397 108.651 303.397 108.962V115.585C303.397 115.896 303.647 116.15 303.956 116.15H307.659V133.29C307.659 140.213 311.105 143.725 317.909 143.725C320.67 143.725 322.962 143.153 325.123 141.927C325.301 141.832 325.409 141.641 325.409 141.439V135.129C325.409 134.939 325.307 134.754 325.141 134.653C324.974 134.546 324.766 134.54 324.593 134.629C323.111 135.373 321.676 135.719 320.069 135.719C317.599 135.719 316.492 134.594 316.492 132.082V116.153H324.974C325.284 116.153 325.534 115.9 325.534 115.588V108.966C325.545 108.654 325.295 108.401 324.98 108.401L324.974 108.397ZM354.522 108.431V107.366C354.522 104.233 355.724 102.836 358.415 102.836C360.022 102.836 361.313 103.156 362.76 103.638C362.938 103.694 363.123 103.666 363.266 103.559C363.415 103.453 363.498 103.282 363.498 103.101V96.6067C363.498 96.3585 363.343 96.1388 363.099 96.0656C361.575 95.6115 359.623 95.1454 356.694 95.1454C349.581 95.1454 345.813 99.1537 345.813 106.733V108.364H342.111C341.801 108.364 341.545 108.617 341.545 108.928V115.585C341.545 115.896 341.801 116.15 342.111 116.15H345.813V142.582C345.813 142.897 346.069 143.147 346.379 143.147H354.081C354.397 143.147 354.647 142.897 354.647 142.582V116.152H361.843L372.867 142.582C371.617 145.356 370.385 145.909 368.706 145.909C367.349 145.909 365.915 145.504 364.456 144.701C364.319 144.629 364.153 144.617 364.01 144.659C363.861 144.713 363.736 144.82 363.676 144.963L361.063 150.695C360.938 150.969 361.045 151.284 361.307 151.427C364.034 152.903 366.492 153.534 369.534 153.534C375.224 153.534 378.373 150.879 381.141 143.748L394.51 109.203C394.581 109.029 394.557 108.832 394.45 108.678C394.349 108.525 394.176 108.433 393.992 108.433H385.968C385.724 108.433 385.51 108.586 385.432 108.811L377.212 132.284L368.212 108.796C368.129 108.578 367.92 108.433 367.688 108.433H354.522V108.431ZM337.391 108.397H329.682C329.373 108.397 329.117 108.651 329.117 108.962V142.582C329.117 142.897 329.373 143.147 329.682 143.147H337.391C337.7 143.147 337.956 142.897 337.956 142.582V108.964C337.956 108.653 337.706 108.4 337.391 108.4V108.397ZM333.581 93.0883C330.528 93.0883 328.051 95.5597 328.051 98.6127C328.051 101.667 330.528 104.142 333.581 104.142C336.635 104.142 339.105 101.667 339.105 98.6127C339.105 95.5603 336.629 93.0883 333.581 93.0883ZM401.093 119.207C398.045 119.207 395.67 116.758 395.67 113.783C395.67 110.809 398.075 108.332 401.123 108.332C404.17 108.332 406.545 110.781 406.545 113.753C406.545 116.727 404.141 119.207 401.093 119.207ZM401.123 108.871C398.343 108.871 396.242 111.079 396.242 113.783C396.242 116.486 398.331 118.665 401.093 118.665C403.873 118.665 405.974 116.458 405.974 113.753C405.974 111.05 403.885 108.871 401.123 108.871ZM402.325 114.31L403.861 116.458H402.563L401.182 114.488H399.998V116.458H398.915V110.765H401.45C402.778 110.765 403.647 111.442 403.647 112.581C403.653 113.514 403.111 114.085 402.331 114.31H402.325ZM401.409 111.742H399.998V113.542H401.409C402.111 113.542 402.534 113.198 402.534 112.641C402.534 112.056 402.111 111.742 401.409 111.742Z" fill="black" style="fill:black;fill-opacity:1;"/>
</g>
<defs>
<clipPath id="clip0_1728_5650">
<rect width="332.738" height="100" fill="white" style="fill:white;fill-opacity:1;" transform="translate(74 70)"/>
</clipPath>
</defs>
</svg>
