<svg width="480" height="240" viewBox="0 0 480 240" fill="none" xmlns="http://www.w3.org/2000/svg">
<g clip-path="url(#clip0_1094_5673)">
<path d="M236.428 98.5C221.701 98.5 211.083 108.132 211.083 122.752C211.083 137.372 223.071 147.004 237.798 147.004C246.703 147.004 254.58 143.392 259.375 137.544L249.101 131.524C246.361 134.448 242.251 136.168 237.627 136.168C231.291 136.168 225.811 132.728 223.756 127.396H261.259C261.602 125.848 261.773 124.3 261.773 122.752C261.773 108.132 251.155 98.5 236.428 98.5ZM223.756 117.936C225.468 112.604 229.921 109.164 236.428 109.164C242.764 109.164 247.388 112.604 249.101 117.936H223.756ZM220.673 83.708L183.684 148.208L146.523 83.708H160.394L183.512 123.956L206.802 83.708H220.673ZM95.4908 77L144.982 163H46L95.4908 77ZM315.545 122.752C315.545 130.836 320.854 136.168 328.902 136.168C334.382 136.168 338.492 133.588 340.718 129.632L350.993 135.652C346.712 142.704 338.835 147.004 328.902 147.004C314.175 147.004 303.557 137.372 303.557 122.752C303.557 108.132 314.175 98.5 328.902 98.5C338.663 98.5 346.712 102.8 350.993 109.852L340.718 115.872C338.663 111.744 334.382 109.336 328.902 109.336C320.854 109.336 315.545 114.668 315.545 122.752ZM426 83.708V145.456H414.013V83.708H426ZM380.448 98.5C365.721 98.5 355.103 108.132 355.103 122.752C355.103 137.372 367.091 147.004 381.818 147.004C390.723 147.004 398.6 143.392 403.395 137.544L393.12 131.524C390.38 134.448 386.27 136.168 381.647 136.168C375.311 136.168 369.831 132.728 367.776 127.396H405.279C405.621 125.848 405.793 124.3 405.793 122.752C405.964 108.132 395.175 98.5 380.448 98.5ZM367.776 117.936C369.488 112.604 373.941 109.164 380.448 109.164C386.955 109.164 391.408 112.604 393.12 117.936H367.776ZM299.619 99.876V112.948C298.249 112.604 296.879 112.26 295.338 112.26C287.631 112.26 281.98 117.592 281.98 125.676V145.628H269.993V99.876H281.98V112.26C281.98 105.38 289.858 99.876 299.619 99.876Z" fill="black" style="fill:black;fill-opacity:1;"/>
</g>
<defs>
<clipPath id="clip0_1094_5673">
<rect width="380" height="86" fill="white" style="fill:white;fill-opacity:1;" transform="translate(46 77)"/>
</clipPath>
</defs>
</svg>
