<svg width="480" height="240" viewBox="0 0 480 240" fill="none" xmlns="http://www.w3.org/2000/svg">
<path d="M38.1211 72.5264H133.068V167.474H38.1211V72.5264Z" fill="black" style="fill:black;fill-opacity:1;"/>
<path d="M82.434 126.328L65.9805 95.6289H73.577L83.0717 114.935C83.0717 115.252 83.3887 115.569 83.7057 115.886C84.0227 116.203 84.0227 116.52 84.3397 117.151L84.6567 117.468V117.785C84.9737 118.419 84.9737 118.736 85.2907 119.369C85.6077 119.686 85.6077 120.32 85.9247 120.634C86.2417 119.683 86.8757 119.049 87.1889 117.785C87.5059 116.834 88.1399 115.886 88.7738 114.935L98.2686 95.6289H105.231L88.7776 126.649V146.272H82.4491L82.434 126.328Z" fill="white" style="fill:white;fill-opacity:1;"/>
<path d="M171.072 105.906C175.072 105.906 178.544 106.974 181.215 109.114L178.547 112.322C176.143 110.722 173.743 109.654 170.811 109.654C166.271 109.654 162.803 112.058 160.935 116.597C159.867 119.265 159.335 122.737 159.335 127.277C159.335 130.749 159.864 133.685 160.671 135.821C162.807 140.893 166.279 143.293 171.615 143.293C174.551 143.293 177.223 142.493 179.623 140.625L182.291 144.097C178.819 146.233 175.121 147.304 171.083 147.304C166.279 147.304 162.275 145.436 159.071 141.432C155.863 137.659 154.531 132.625 154.531 126.488C154.531 120.352 156.131 115.545 159.335 111.544C162.271 108.073 166.279 105.937 171.083 105.937L171.072 105.906ZM186.287 132.334C186.287 127.53 187.355 123.79 189.759 121.126C192.163 118.462 195.099 116.854 198.835 116.854C203.107 116.854 206.571 118.454 208.979 121.926C210.847 124.594 211.647 128.334 211.647 132.87C211.647 138.21 210.047 142.482 207.107 145.15C204.897 147.091 202.041 148.138 199.099 148.086C195.099 148.086 192.155 146.75 189.755 143.814C187.351 141.146 186.287 137.142 186.287 132.334ZM204.975 124.598C203.639 122.194 201.767 120.824 198.835 120.824C195.903 120.824 194.031 121.892 192.695 124.032C191.627 125.632 191.359 128.304 191.359 131.768C191.359 136.308 191.887 139.504 193.227 141.38C194.567 143.255 196.435 144.316 199.099 144.316C202.307 144.316 204.439 142.715 205.507 139.776C206.035 138.176 206.307 136.002 206.307 133.368C206.571 129.368 206.043 126.424 204.971 124.56L204.975 124.598ZM220.183 125.126C220.183 122.19 219.919 119.786 219.115 117.956L223.655 116.888C224.455 118.224 224.723 119.824 224.723 121.16V121.424C225.791 120.356 226.859 119.288 228.497 118.488C230.365 117.42 231.968 116.888 233.568 116.888C235.972 116.888 238.108 117.956 239.44 119.824C239.705 120.352 240.24 121.16 240.508 121.692C243.716 118.484 246.648 116.888 249.852 116.888C251.988 116.888 253.852 117.688 255.192 119.024C256.528 120.624 257.328 122.496 257.328 124.632V146.784H252.452V124.896C252.452 121.96 251.116 120.624 248.678 120.624C247.343 120.624 245.742 121.152 244.407 122.224C243.878 122.752 242.807 123.56 241.471 124.628L240.942 125.156V146.78H235.87V125.926C235.87 124.058 235.606 122.718 235.07 122.152C234.27 121.352 233.47 121.084 232.134 121.084C229.998 121.084 227.595 122.42 224.662 125.085V146.972H220.187L220.183 125.126ZM265.57 104.838L270.374 103.771C270.902 105.906 271.174 108.31 271.174 111.243V121.118C273.842 118.45 276.781 117.118 279.717 117.118C283.189 117.118 286.125 118.454 287.993 121.118C290.129 123.786 291.201 127.526 291.201 132.062C291.201 136.866 290.133 140.606 287.993 143.542C285.854 146.478 282.921 147.814 279.45 147.814C277.871 147.843 276.31 147.476 274.91 146.746C273.31 145.946 272.242 145.146 271.438 144.078L270.638 147.285H266.098C266.626 145.95 266.898 143.512 266.898 139.813V111.775C266.634 108.567 266.37 106.167 265.562 104.831L265.57 104.838ZM273.306 122.952C272.506 123.481 271.706 124.288 271.17 125.088V140.38C273.038 142.783 275.442 143.851 278.34 143.851C280.744 143.851 282.612 143.051 283.68 141.183C285.016 139.047 285.816 136.111 285.816 131.84C285.816 128.066 285.288 125.432 283.948 123.832C282.88 122.232 281.012 121.428 278.34 121.428C276.74 121.164 274.868 121.692 273.268 123.028L273.306 122.952ZM298.137 108.612C298.137 107.544 298.401 106.744 299.205 105.944C300.009 105.144 300.805 104.876 301.873 104.876C302.941 104.876 303.741 105.14 304.541 105.944C305.341 106.748 305.609 107.544 305.609 108.612C305.609 109.68 305.345 110.48 304.541 111.28C303.737 112.08 302.941 112.348 301.873 112.348C300.805 112.348 300.005 112.084 299.205 111.28C298.405 110.476 298.137 109.68 298.137 108.612ZM299.247 147.021V117.662L304.051 116.862V147.029L299.247 147.021ZM314.425 125.126C314.425 122.99 314.425 121.654 314.16 121.126C314.16 120.326 313.632 119.526 313.092 118.19L317.632 116.854C318.363 118.254 318.73 119.815 318.7 121.394C321.636 118.458 324.84 116.854 328.044 116.854C329.644 116.854 330.98 117.118 332.316 117.922C333.652 118.726 334.72 119.79 335.252 121.13C335.78 122.198 336.052 123.266 336.052 124.602V147.025H331.512V127.005C331.512 124.602 331.248 123.005 330.444 122.201C330.028 121.774 329.53 121.435 328.979 121.205C328.428 120.976 327.837 120.86 327.24 120.866C326.172 120.866 324.572 121.394 322.968 122.201C321.485 122.959 320.133 123.951 318.964 125.137V147.025H314.425V125.126ZM346.728 124.058L344.324 120.85C348.324 118.182 352.332 116.85 356.604 116.85C360.875 116.85 363.547 118.45 364.879 121.39C365.408 122.458 365.408 124.058 365.408 126.462V128.062L365.144 137.674V139.01C365.144 140.61 365.144 141.678 365.408 142.482C365.672 143.549 366.476 144.35 367.544 144.885L365.14 148.093C363.004 147.293 361.668 145.957 361.14 143.821C358.472 146.489 355.532 147.821 352.596 147.821C349.66 147.821 347.256 147.021 345.426 145.417C343.826 144.082 343.022 141.946 343.022 139.278C342.952 137.75 343.285 136.23 343.987 134.871C344.69 133.513 345.738 132.363 347.026 131.538C349.694 129.67 353.698 128.87 358.506 128.87H360.642V126.734C360.642 124.33 360.377 122.734 359.574 122.194C359.067 121.647 358.446 121.22 357.754 120.943C357.062 120.666 356.317 120.547 355.573 120.594C353.973 120.594 352.102 121.122 349.966 121.93L346.758 124.066L346.728 124.058ZM360.879 139.81L361.143 132.074H358.74C354.468 132.074 351.796 132.874 350.196 134.477C349.128 135.545 348.596 137.145 348.596 139.281C348.596 142.753 350.196 144.621 353.668 144.621C355.183 144.534 356.648 144.043 357.909 143.198C359.17 142.353 360.181 141.186 360.838 139.817L360.879 139.81ZM380.631 117.65H388.103L386.767 121.424H380.627V140.38C380.627 141.98 380.891 143.048 381.427 143.851C381.956 144.38 383.027 144.919 384.363 144.919C385.431 144.919 386.499 144.655 387.299 144.391L387.827 147.327C386.227 148.127 384.62 148.395 382.756 148.395C378.216 148.395 376.084 146.259 376.084 141.723V121.435H372.08V117.662H375.853V117.133C375.853 116.605 376.118 114.465 376.382 110.993V110.19L381.186 109.122C380.657 112.329 380.657 115.262 380.657 117.665L380.631 117.65ZM392.911 132.33C392.911 127.526 393.979 123.786 396.383 121.122C398.519 118.454 401.722 116.85 405.458 116.85C409.73 116.85 413.195 118.45 415.602 121.922C417.47 124.59 418.27 128.33 418.27 132.866C418.27 138.206 416.67 142.478 413.73 145.146C411.52 147.088 408.664 148.135 405.723 148.082C401.722 148.082 398.779 146.746 396.379 143.81C394.243 141.142 392.911 137.138 392.911 132.33ZM411.866 124.594C410.53 122.19 408.659 120.82 405.726 120.82C402.794 120.82 400.922 121.888 399.586 124.028C398.519 125.628 398.251 128.3 398.251 131.764C398.251 136.304 398.779 139.5 400.119 141.376C401.458 143.251 403.326 144.312 405.991 144.312C409.198 144.312 411.33 142.712 412.398 139.772C412.927 138.172 413.198 135.998 413.198 133.364C413.198 129.364 412.67 126.42 411.862 124.556L411.866 124.594ZM427.074 124.586C427.074 121.918 426.81 119.782 426.006 118.179L430.546 116.843C431.277 118.243 431.644 119.804 431.614 121.383V121.911C434.018 118.703 436.686 117.107 439.89 117.107C440.418 117.107 440.958 117.107 441.49 117.371L439.622 122.443C439.094 122.179 438.554 122.179 438.286 122.179C437.218 122.179 435.882 122.443 434.814 123.247C433.746 124.051 432.678 124.847 432.146 125.915C431.795 126.946 431.615 128.029 431.614 129.119V147.535H427.074V124.586Z" fill="black" style="fill:black;fill-opacity:1;"/>
</svg>
